<?xml version="1.0" encoding="UTF-8"?>
<svg version="1.1" xmlns="http://www.w3.org/2000/svg" width="1039" height="1039">
<path d="M0 0 C342.87 0 685.74 0 1039 0 C1039 342.87 1039 685.74 1039 1039 C696.13 1039 353.26 1039 0 1039 C0 696.13 0 353.26 0 0 Z " fill="#9A6DB7" transform="translate(0,0)"/>
<path d="M0 0 C7.92 0 15.84 0 24 0 C24 3.96 24 7.92 24 12 C31.92 12 39.84 12 48 12 C48 15.96 48 19.92 48 24 C51.96 24 55.92 24 60 24 C60 27.96 60 31.92 60 36 C63.96 36 67.92 36 72 36 C72 39.96 72 43.92 72 48 C75.96 48 79.92 48 84 48 C84 51.96 84 55.92 84 60 C87.96 60 91.92 60 96 60 C96 63.96 96 67.92 96 72 C99.96 72 103.92 72 108 72 C108 75.96 108 79.92 108 84 C115.92 84 123.84 84 132 84 C132 87.96 132 91.92 132 96 C139.92 96 147.84 96 156 96 C156 99.96 156 103.92 156 108 C159.96 108 163.92 108 168 108 C168 111.96 168 115.92 168 120 C171.96 120 175.92 120 180 120 C180 123.96 180 127.92 180 132 C183.96 132 187.92 132 192 132 C192 135.96 192 139.92 192 144 C199.92 144 207.84 144 216 144 C216 147.96 216 151.92 216 156 C219.96 156 223.92 156 228 156 C228 159.96 228 163.92 228 168 C231.96 168 235.92 168 240 168 C240 171.96 240 175.92 240 180 C247.92 180 255.84 180 264 180 C264 187.92 264 195.84 264 204 C256.08 204 248.16 204 240 204 C240 247.56 240 291.12 240 336 C247.92 336 255.84 336 264 336 C264 351.84 264 367.68 264 384 C260.04 384 256.08 384 252 384 C252 395.88 252 407.76 252 420 C248.04 420 244.08 420 240 420 C240 427.92 240 435.84 240 444 C236.04 444 232.08 444 228 444 C228 455.88 228 467.76 228 480 C224.04 480 220.08 480 216 480 C216 491.88 216 503.76 216 516 C212.04 516 208.08 516 204 516 C204 519.96 204 523.92 204 528 C215.88 528 227.76 528 240 528 C240 524.04 240 520.08 240 516 C247.92 516 255.84 516 264 516 C264 512.04 264 508.08 264 504 C267.96 504 271.92 504 276 504 C276 496.08 276 488.16 276 480 C287.88 480 299.76 480 312 480 C312 483.96 312 487.92 312 492 C308.04 492 304.08 492 300 492 C300 503.88 300 515.76 300 528 C296.04 528 292.08 528 288 528 C288 539.88 288 551.76 288 564 C284.04 564 280.08 564 276 564 C276 575.88 276 587.76 276 600 C272.04 600 268.08 600 264 600 C264 603.96 264 607.92 264 612 C271.92 612 279.84 612 288 612 C288 608.04 288 604.08 288 600 C295.92 600 303.84 600 312 600 C312 603.96 312 607.92 312 612 C308.04 612 304.08 612 300 612 C300 615.96 300 619.92 300 624 C284.16 624 268.32 624 252 624 C252 612.12 252 600.24 252 588 C255.96 588 259.92 588 264 588 C264 584.04 264 580.08 264 576 C252.12 576 240.24 576 228 576 C228 579.96 228 583.92 228 588 C220.08 588 212.16 588 204 588 C204 591.96 204 595.92 204 600 C192.12 600 180.24 600 168 600 C168 603.96 168 607.92 168 612 C160.08 612 152.16 612 144 612 C144 608.04 144 604.08 144 600 C136.08 600 128.16 600 120 600 C120 603.96 120 607.92 120 612 C100.2 612 80.4 612 60 612 C60 608.04 60 604.08 60 600 C52.08 600 44.16 600 36 600 C36 611.88 36 623.76 36 636 C47.88 636 59.76 636 72 636 C72 639.96 72 643.92 72 648 C79.92 648 87.84 648 96 648 C96 651.96 96 655.92 96 660 C107.88 660 119.76 660 132 660 C132 663.96 132 667.92 132 672 C159.72 672 187.44 672 216 672 C216 675.96 216 679.92 216 684 C223.92 684 231.84 684 240 684 C240 687.96 240 691.92 240 696 C243.96 696 247.92 696 252 696 C252 699.96 252 703.92 252 708 C255.96 708 259.92 708 264 708 C264 711.96 264 715.92 264 720 C267.96 720 271.92 720 276 720 C276 749.37 276 778.74 276 809 C38.4 809 -199.2 809 -444 809 C-444 807.35 -444 805.7 -444 804 C-451.92 804 -459.84 804 -468 804 C-468 800.04 -468 796.08 -468 792 C-471.96 792 -475.92 792 -480 792 C-480 788.04 -480 784.08 -480 780 C-483.96 780 -487.92 780 -492 780 C-492 776.04 -492 772.08 -492 768 C-495.96 768 -499.92 768 -504 768 C-504 637.32 -504 506.64 -504 372 C-500.04 372 -496.08 372 -492 372 C-492 379.92 -492 387.84 -492 396 C-476.49 396 -460.98 396 -445 396 C-445 388.08 -445 380.16 -445 372 C-441.04 372 -437.08 372 -433 372 C-433 368.04 -433 364.08 -433 360 C-428.71 360 -424.42 360 -420 360 C-420 356.04 -420 352.08 -420 348 C-416.04 348 -412.08 348 -408 348 C-408 395.52 -408 443.04 -408 492 C-411.96 492 -415.92 492 -420 492 C-420 527.64 -420 563.28 -420 600 C-408.12 600 -396.24 600 -384 600 C-384 592.08 -384 584.16 -384 576 C-372.45 576 -360.9 576 -349 576 C-349 572.04 -349 568.08 -349 564 C-344.71 564 -340.42 564 -336 564 C-336 548.16 -336 532.32 -336 516 C-328.08 516 -320.16 516 -312 516 C-312 512.04 -312 508.08 -312 504 C-315.96 504 -319.92 504 -324 504 C-324 381.24 -324 258.48 -324 132 C-320.04 132 -316.08 132 -312 132 C-312 128.04 -312 124.08 -312 120 C-304.08 120 -296.16 120 -288 120 C-288 116.04 -288 112.08 -288 108 C-284.04 108 -280.08 108 -276 108 C-276 104.04 -276 100.08 -276 96 C-268.08 96 -260.16 96 -252 96 C-252 92.04 -252 88.08 -252 84 C-244.08 84 -236.16 84 -228 84 C-228 80.04 -228 76.08 -228 72 C-220.08 72 -212.16 72 -204 72 C-204 64.08 -204 56.16 -204 48 C-196.08 48 -188.16 48 -180 48 C-180 40.08 -180 32.16 -180 24 C-176.04 24 -172.08 24 -168 24 C-168 55.68 -168 87.36 -168 120 C-164.04 120 -160.08 120 -156 120 C-156 123.96 -156 127.92 -156 132 C-140.16 132 -124.32 132 -108 132 C-108 128.04 -108 124.08 -108 120 C-104.04 120 -100.08 120 -96 120 C-96 116.04 -96 112.08 -96 108 C-92.04 108 -88.08 108 -84 108 C-84 96.12 -84 84.24 -84 72 C-80.04 72 -76.08 72 -72 72 C-72 91.8 -72 111.6 -72 132 C-60.12 132 -48.24 132 -36 132 C-36 135.96 -36 139.92 -36 144 C-32.04 144 -28.08 144 -24 144 C-24 147.96 -24 151.92 -24 156 C-20.37 156 -16.74 156 -13 156 C-13 132.24 -13 108.48 -13 84 C-8.71 84 -4.42 84 0 84 C0 56.28 0 28.56 0 0 Z " fill="#9464A0" transform="translate(586,230)"/>
<path d="M0 0 C342.87 0 685.74 0 1039 0 C1039 342.87 1039 685.74 1039 1039 C988.51 1039 938.02 1039 886 1039 C886 1037.35 886 1035.7 886 1034 C893.92 1034 901.84 1034 910 1034 C910 1030.04 910 1026.08 910 1022 C913.96 1022 917.92 1022 922 1022 C922 1018.04 922 1014.08 922 1010 C925.96 1010 929.92 1010 934 1010 C934 946.64 934 883.28 934 818 C937.96 818 941.92 818 946 818 C946 814.04 946 810.08 946 806 C949.96 806 953.92 806 958 806 C958 802.04 958 798.08 958 794 C961.96 794 965.92 794 970 794 C970 790.04 970 786.08 970 782 C973.96 782 977.92 782 982 782 C982 770.12 982 758.24 982 746 C985.96 746 989.92 746 994 746 C994 714.32 994 682.64 994 650 C990.04 650 986.08 650 982 650 C982 642.08 982 634.16 982 626 C978.04 626 974.08 626 970 626 C970 606.2 970 586.4 970 566 C966.04 566 962.08 566 958 566 C958 518.48 958 470.96 958 422 C954.04 422 950.08 422 946 422 C946 410.12 946 398.24 946 386 C942.04 386 938.08 386 934 386 C934 306.8 934 227.6 934 146 C930.04 146 926.08 146 922 146 C922 142.04 922 138.08 922 134 C918.04 134 914.08 134 910 134 C910 130.04 910 126.08 910 122 C906.04 122 902.08 122 898 122 C898 118.04 898 114.08 898 110 C894.04 110 890.08 110 886 110 C886 106.04 886 102.08 886 98 C838.48 98 790.96 98 742 98 C742 94.04 742 90.08 742 86 C730.12 86 718.24 86 706 86 C706 82.04 706 78.08 706 74 C690.16 74 674.32 74 658 74 C658 70.04 658 66.08 658 62 C638.2 62 618.4 62 598 62 C598 58.04 598 54.08 598 50 C582.16 50 566.32 50 550 50 C550 38.12 550 26.24 550 14 C546.04 14 542.08 14 538 14 C538 10.04 538 6.08 538 2 C530.08 2 522.16 2 514 2 C514 5.96 514 9.92 514 14 C510.04 14 506.08 14 502 14 C502 25.88 502 37.76 502 50 C494.08 50 486.16 50 478 50 C478 53.96 478 57.92 478 62 C458.2 62 438.4 62 418 62 C418 65.96 418 69.92 418 74 C406.12 74 394.24 74 382 74 C382 77.96 382 81.92 382 86 C366.16 86 350.32 86 334 86 C334 89.96 334 93.92 334 98 C270.64 98 207.28 98 142 98 C142 101.96 142 105.92 142 110 C138.04 110 134.08 110 130 110 C130 113.96 130 117.92 130 122 C126.04 122 122.08 122 118 122 C118 125.96 118 129.92 118 134 C114.04 134 110.08 134 106 134 C106 137.96 106 141.92 106 146 C102.04 146 98.08 146 94 146 C94 149.96 94 153.92 94 158 C89.71 158 85.42 158 81 158 C81 237.2 81 316.4 81 398 C77.04 398 73.08 398 69 398 C69 433.64 69 469.28 69 506 C65.37 506 61.74 506 58 506 C58 533.72 58 561.44 58 590 C61.63 590 65.26 590 69 590 C69 593.96 69 597.92 69 602 C72.96 602 76.92 602 81 602 C81 732.68 81 863.36 81 998 C85.29 998 89.58 998 94 998 C94 1001.96 94 1005.92 94 1010 C97.96 1010 101.92 1010 106 1010 C106 1013.96 106 1017.92 106 1022 C109.96 1022 113.92 1022 118 1022 C118 1025.96 118 1029.92 118 1034 C125.92 1034 133.84 1034 142 1034 C142 1035.65 142 1037.3 142 1039 C95.14 1039 48.28 1039 0 1039 C0 696.13 0 353.26 0 0 Z " fill="#A983C3" transform="translate(0,0)"/>
<path d="M0 0 C39.6 0 79.2 0 120 0 C120 7.92 120 15.84 120 24 C143.76 24 167.52 24 192 24 C192 16.08 192 8.16 192 0 C199.92 0 207.84 0 216 0 C216 7.92 216 15.84 216 24 C223.92 24 231.84 24 240 24 C240 27.96 240 31.92 240 36 C243.96 36 247.92 36 252 36 C252 39.96 252 43.92 252 48 C263.88 48 275.76 48 288 48 C288 40.08 288 32.16 288 24 C291.96 24 295.92 24 300 24 C300 16.08 300 8.16 300 0 C339.6 0 379.2 0 420 0 C420 7.92 420 15.84 420 24 C427.92 24 435.84 24 444 24 C444 27.96 444 31.92 444 36 C455.88 36 467.76 36 480 36 C480 39.96 480 43.92 480 48 C483.96 48 487.92 48 492 48 C492 51.96 492 55.92 492 60 C495.96 60 499.92 60 504 60 C504 63.96 504 67.92 504 72 C496.08 72 488.16 72 480 72 C480 68.04 480 64.08 480 60 C428.52 60 377.04 60 324 60 C324 63.96 324 67.92 324 72 C312.12 72 300.24 72 288 72 C288 79.92 288 87.84 288 96 C303.84 96 319.68 96 336 96 C336 103.92 336 111.84 336 120 C339.96 120 343.92 120 348 120 C348 123.96 348 127.92 348 132 C351.96 132 355.92 132 360 132 C360 135.96 360 139.92 360 144 C375.84 144 391.68 144 408 144 C408 140.04 408 136.08 408 132 C411.96 132 415.92 132 420 132 C420 128.04 420 124.08 420 120 C423.96 120 427.92 120 432 120 C432 112.08 432 104.16 432 96 C459.39 96 486.78 96 515 96 C515 135.6 515 175.2 515 216 C511.37 216 507.74 216 504 216 C504 223.92 504 231.84 504 240 C500.04 240 496.08 240 492 240 C492 251.88 492 263.76 492 276 C488.04 276 484.08 276 480 276 C480 279.96 480 283.92 480 288 C472.08 288 464.16 288 456 288 C456 291.96 456 295.92 456 300 C452.04 300 448.08 300 444 300 C444 303.96 444 307.92 444 312 C440.04 312 436.08 312 432 312 C432 315.96 432 319.92 432 324 C428.04 324 424.08 324 420 324 C420 331.92 420 339.84 420 348 C416.04 348 412.08 348 408 348 C408 351.96 408 355.92 408 360 C396.12 360 384.24 360 372 360 C372 363.96 372 367.92 372 372 C368.04 372 364.08 372 360 372 C360 375.96 360 379.92 360 384 C352.08 384 344.16 384 336 384 C336 387.96 336 391.92 336 396 C332.04 396 328.08 396 324 396 C324 403.92 324 411.84 324 420 C312.12 420 300.24 420 288 420 C288 423.96 288 427.92 288 432 C224.64 432 161.28 432 96 432 C96 428.04 96 424.08 96 420 C88.08 420 80.16 420 72 420 C72 416.04 72 412.08 72 408 C68.04 408 64.08 408 60 408 C60 404.04 60 400.08 60 396 C56.04 396 52.08 396 48 396 C48 392.04 48 388.08 48 384 C44.04 384 40.08 384 36 384 C36 380.04 36 376.08 36 372 C32.04 372 28.08 372 24 372 C24 368.04 24 364.08 24 360 C20.04 360 16.08 360 12 360 C12 356.04 12 352.08 12 348 C8.04 348 4.08 348 0 348 C0 340.08 0 332.16 0 324 C-7.92 324 -15.84 324 -24 324 C-24 248.76 -24 173.52 -24 96 C-4.2 96 15.6 96 36 96 C36 103.92 36 111.84 36 120 C39.96 120 43.92 120 48 120 C48 123.96 48 127.92 48 132 C51.96 132 55.92 132 60 132 C60 135.96 60 139.92 60 144 C75.84 144 91.68 144 108 144 C108 140.04 108 136.08 108 132 C111.96 132 115.92 132 120 132 C120 128.04 120 124.08 120 120 C123.96 120 127.92 120 132 120 C132 112.08 132 104.16 132 96 C147.84 96 163.68 96 180 96 C180 88.08 180 80.16 180 72 C172.08 72 164.16 72 156 72 C156 68.04 156 64.08 156 60 C108.48 60 60.96 60 12 60 C12 63.96 12 67.92 12 72 C0.12 72 -11.76 72 -24 72 C-24 56.16 -24 40.32 -24 24 C-16.08 24 -8.16 24 0 24 C0 16.08 0 8.16 0 0 Z " fill="#FEE2C3" transform="translate(298,362)"/>
<path d="M0 0 C7.92 0 15.84 0 24 0 C24 3.96 24 7.92 24 12 C20.04 12 16.08 12 12 12 C12 15.96 12 19.92 12 24 C8.04 24 4.08 24 0 24 C0 31.92 0 39.84 0 48 C-7.92 48 -15.84 48 -24 48 C-24 59.88 -24 71.76 -24 84 C-12.12 84 -0.24 84 12 84 C12 87.96 12 91.92 12 96 C19.92 96 27.84 96 36 96 C36 99.96 36 103.92 36 108 C47.88 108 59.76 108 72 108 C72 111.96 72 115.92 72 120 C99.72 120 127.44 120 156 120 C156 123.96 156 127.92 156 132 C163.92 132 171.84 132 180 132 C180 135.96 180 139.92 180 144 C183.96 144 187.92 144 192 144 C192 147.96 192 151.92 192 156 C195.96 156 199.92 156 204 156 C204 159.96 204 163.92 204 168 C207.96 168 211.92 168 216 168 C216 197.37 216 226.74 216 257 C-5.76 257 -227.52 257 -456 257 C-456 227.63 -456 198.26 -456 168 C-452.04 168 -448.08 168 -444 168 C-444 164.04 -444 160.08 -444 156 C-440.04 156 -436.08 156 -432 156 C-432 152.04 -432 148.08 -432 144 C-416.16 144 -400.32 144 -384 144 C-384 140.04 -384 136.08 -384 132 C-368.16 132 -352.32 132 -336 132 C-336 128.04 -336 124.08 -336 120 C-332.04 120 -328.08 120 -324 120 C-324 116.04 -324 112.08 -324 108 C-312.12 108 -300.24 108 -288 108 C-288 104.04 -288 100.08 -288 96 C-272.16 96 -256.32 96 -240 96 C-240 92.04 -240 88.08 -240 84 C-224.16 84 -208.32 84 -192 84 C-192 72.12 -192 60.24 -192 48 C-199.92 48 -207.84 48 -216 48 C-216 44.04 -216 40.08 -216 36 C-219.96 36 -223.92 36 -228 36 C-228 32.04 -228 28.08 -228 24 C-160.68 24 -93.36 24 -24 24 C-24 20.04 -24 16.08 -24 12 C-16.08 12 -8.16 12 0 12 C0 8.04 0 4.08 0 0 Z " fill="#372645" transform="translate(646,782)"/>
<path d="M0 0 C7.92 0 15.84 0 24 0 C24 3.96 24 7.92 24 12 C31.92 12 39.84 12 48 12 C48 15.96 48 19.92 48 24 C51.96 24 55.92 24 60 24 C60 27.96 60 31.92 60 36 C63.96 36 67.92 36 72 36 C72 39.96 72 43.92 72 48 C75.96 48 79.92 48 84 48 C84 51.96 84 55.92 84 60 C87.96 60 91.92 60 96 60 C96 63.96 96 67.92 96 72 C99.96 72 103.92 72 108 72 C108 75.96 108 79.92 108 84 C115.92 84 123.84 84 132 84 C132 87.96 132 91.92 132 96 C139.92 96 147.84 96 156 96 C156 99.96 156 103.92 156 108 C159.96 108 163.92 108 168 108 C168 111.96 168 115.92 168 120 C171.96 120 175.92 120 180 120 C180 123.96 180 127.92 180 132 C183.96 132 187.92 132 192 132 C192 135.96 192 139.92 192 144 C199.92 144 207.84 144 216 144 C216 147.96 216 151.92 216 156 C219.96 156 223.92 156 228 156 C228 159.96 228 163.92 228 168 C231.96 168 235.92 168 240 168 C240 171.96 240 175.92 240 180 C247.92 180 255.84 180 264 180 C264 187.92 264 195.84 264 204 C256.08 204 248.16 204 240 204 C240 247.56 240 291.12 240 336 C247.92 336 255.84 336 264 336 C264 351.84 264 367.68 264 384 C260.04 384 256.08 384 252 384 C252 395.88 252 407.76 252 420 C248.04 420 244.08 420 240 420 C240 427.92 240 435.84 240 444 C236.04 444 232.08 444 228 444 C228 455.88 228 467.76 228 480 C224.04 480 220.08 480 216 480 C216 491.88 216 503.76 216 516 C212.04 516 208.08 516 204 516 C204 519.96 204 523.92 204 528 C215.88 528 227.76 528 240 528 C240 524.04 240 520.08 240 516 C247.92 516 255.84 516 264 516 C264 512.04 264 508.08 264 504 C267.96 504 271.92 504 276 504 C276 496.08 276 488.16 276 480 C287.88 480 299.76 480 312 480 C312 483.96 312 487.92 312 492 C308.04 492 304.08 492 300 492 C300 503.88 300 515.76 300 528 C296.04 528 292.08 528 288 528 C288 539.88 288 551.76 288 564 C284.04 564 280.08 564 276 564 C276 575.88 276 587.76 276 600 C272.04 600 268.08 600 264 600 C264 603.96 264 607.92 264 612 C271.92 612 279.84 612 288 612 C288 608.04 288 604.08 288 600 C295.92 600 303.84 600 312 600 C312 603.96 312 607.92 312 612 C308.04 612 304.08 612 300 612 C300 615.96 300 619.92 300 624 C284.16 624 268.32 624 252 624 C252 612.12 252 600.24 252 588 C255.96 588 259.92 588 264 588 C264 584.04 264 580.08 264 576 C252.12 576 240.24 576 228 576 C228 579.96 228 583.92 228 588 C220.08 588 212.16 588 204 588 C204 591.96 204 595.92 204 600 C192.12 600 180.24 600 168 600 C168 603.96 168 607.92 168 612 C160.08 612 152.16 612 144 612 C144 608.04 144 604.08 144 600 C136.08 600 128.16 600 120 600 C120 603.96 120 607.92 120 612 C100.2 612 80.4 612 60 612 C60 600.12 60 588.24 60 576 C63.96 576 67.92 576 72 576 C72 572.04 72 568.08 72 564 C75.96 564 79.92 564 84 564 C84 556.08 84 548.16 84 540 C91.92 540 99.84 540 108 540 C108 536.04 108 532.08 108 528 C111.96 528 115.92 528 120 528 C120 524.04 120 520.08 120 516 C123.96 516 127.92 516 132 516 C132 512.04 132 508.08 132 504 C135.96 504 139.92 504 144 504 C144 500.04 144 496.08 144 492 C147.96 492 151.92 492 156 492 C156 488.04 156 484.08 156 480 C159.96 480 163.92 480 168 480 C168 476.04 168 472.08 168 468 C171.96 468 175.92 468 180 468 C180 464.04 180 460.08 180 456 C183.96 456 187.92 456 192 456 C192 452.04 192 448.08 192 444 C195.96 444 199.92 444 204 444 C204 436.08 204 428.16 204 420 C207.96 420 211.92 420 216 420 C216 412.08 216 404.16 216 396 C219.96 396 223.92 396 228 396 C228 332.64 228 269.28 228 204 C224.04 204 220.08 204 216 204 C216 200.04 216 196.08 216 192 C212.04 192 208.08 192 204 192 C204 188.04 204 184.08 204 180 C200.04 180 196.08 180 192 180 C192 176.04 192 172.08 192 168 C180.12 168 168.24 168 156 168 C156 164.04 156 160.08 156 156 C148.08 156 140.16 156 132 156 C132 148.08 132 140.16 132 132 C92.4 132 52.8 132 12 132 C12 139.92 12 147.84 12 156 C8.04 156 4.08 156 0 156 C0 163.92 0 171.84 0 180 C-11.88 180 -23.76 180 -36 180 C-36 176.04 -36 172.08 -36 168 C-39.96 168 -43.92 168 -48 168 C-48 164.04 -48 160.08 -48 156 C-55.92 156 -63.84 156 -72 156 C-72 148.08 -72 140.16 -72 132 C-60.12 132 -48.24 132 -36 132 C-36 135.96 -36 139.92 -36 144 C-32.04 144 -28.08 144 -24 144 C-24 147.96 -24 151.92 -24 156 C-20.37 156 -16.74 156 -13 156 C-13 132.24 -13 108.48 -13 84 C-8.71 84 -4.42 84 0 84 C0 56.28 0 28.56 0 0 Z " fill="#855EB1" transform="translate(586,230)"/>
<path d="M0 0 C3.96 0 7.92 0 12 0 C12 31.68 12 63.36 12 96 C15.96 96 19.92 96 24 96 C24 99.96 24 103.92 24 108 C39.84 108 55.68 108 72 108 C72 104.04 72 100.08 72 96 C75.96 96 79.92 96 84 96 C84 92.04 84 88.08 84 84 C87.96 84 91.92 84 96 84 C96 72.12 96 60.24 96 48 C99.96 48 103.92 48 108 48 C108 67.8 108 87.6 108 108 C100.08 108 92.16 108 84 108 C84 115.92 84 123.84 84 132 C60.24 132 36.48 132 12 132 C12 124.08 12 116.16 12 108 C-27.6 108 -67.2 108 -108 108 C-108 115.92 -108 123.84 -108 132 C-115.92 132 -123.84 132 -132 132 C-132 147.84 -132 163.68 -132 180 C-120.12 180 -108.24 180 -96 180 C-96 176.04 -96 172.08 -96 168 C-48.48 168 -0.96 168 48 168 C48 171.96 48 175.92 48 180 C55.92 180 63.84 180 72 180 C72 187.92 72 195.84 72 204 C56.16 204 40.32 204 24 204 C24 211.92 24 219.84 24 228 C20.04 228 16.08 228 12 228 C12 231.96 12 235.92 12 240 C8.04 240 4.08 240 0 240 C0 243.96 0 247.92 0 252 C-15.84 252 -31.68 252 -48 252 C-48 248.04 -48 244.08 -48 240 C-51.96 240 -55.92 240 -60 240 C-60 236.04 -60 232.08 -60 228 C-63.96 228 -67.92 228 -72 228 C-72 220.08 -72 212.16 -72 204 C-91.8 204 -111.6 204 -132 204 C-132 279.24 -132 354.48 -132 432 C-124.08 432 -116.16 432 -108 432 C-108 439.92 -108 447.84 -108 456 C-104.04 456 -100.08 456 -96 456 C-96 459.96 -96 463.92 -96 468 C-92.04 468 -88.08 468 -84 468 C-84 471.96 -84 475.92 -84 480 C-80.04 480 -76.08 480 -72 480 C-72 483.96 -72 487.92 -72 492 C-68.04 492 -64.08 492 -60 492 C-60 495.96 -60 499.92 -60 504 C-56.04 504 -52.08 504 -48 504 C-48 507.96 -48 511.92 -48 516 C-44.04 516 -40.08 516 -36 516 C-36 519.96 -36 523.92 -36 528 C-28.41 528 -20.82 528 -13 528 C-13 531.96 -13 535.92 -13 540 C-24.55 540 -36.1 540 -48 540 C-48 536.04 -48 532.08 -48 528 C-55.92 528 -63.84 528 -72 528 C-72 531.96 -72 535.92 -72 540 C-75.96 540 -79.92 540 -84 540 C-84 543.96 -84 547.92 -84 552 C-87.96 552 -91.92 552 -96 552 C-96 555.96 -96 559.92 -96 564 C-112.17 564 -128.34 564 -145 564 C-145 560.04 -145 556.08 -145 552 C-148.63 552 -152.26 552 -156 552 C-156 555.96 -156 559.92 -156 564 C-159.96 564 -163.92 564 -168 564 C-168 556.08 -168 548.16 -168 540 C-164.04 540 -160.08 540 -156 540 C-156 524.16 -156 508.32 -156 492 C-148.08 492 -140.16 492 -132 492 C-132 488.04 -132 484.08 -132 480 C-135.96 480 -139.92 480 -144 480 C-144 357.24 -144 234.48 -144 108 C-140.04 108 -136.08 108 -132 108 C-132 104.04 -132 100.08 -132 96 C-124.08 96 -116.16 96 -108 96 C-108 92.04 -108 88.08 -108 84 C-104.04 84 -100.08 84 -96 84 C-96 80.04 -96 76.08 -96 72 C-88.08 72 -80.16 72 -72 72 C-72 68.04 -72 64.08 -72 60 C-64.08 60 -56.16 60 -48 60 C-48 56.04 -48 52.08 -48 48 C-40.08 48 -32.16 48 -24 48 C-24 40.08 -24 32.16 -24 24 C-16.08 24 -8.16 24 0 24 C0 16.08 0 8.16 0 0 Z " fill="#3A2749" transform="translate(406,254)"/>
<path d="M0 0 C7.92 0 15.84 0 24 0 C24 3.96 24 7.92 24 12 C20.04 12 16.08 12 12 12 C12 15.96 12 19.92 12 24 C8.04 24 4.08 24 0 24 C0 87.36 0 150.72 0 216 C-3.96 216 -7.92 216 -12 216 C-12 219.96 -12 223.92 -12 228 C-15.96 228 -19.92 228 -24 228 C-24 231.96 -24 235.92 -24 240 C-31.92 240 -39.84 240 -48 240 C-48 241.65 -48 243.3 -48 245 C-55.92 245 -63.84 245 -72 245 C-72 215.63 -72 186.26 -72 156 C-75.96 156 -79.92 156 -84 156 C-84 152.04 -84 148.08 -84 144 C-87.96 144 -91.92 144 -96 144 C-96 140.04 -96 136.08 -96 132 C-99.96 132 -103.92 132 -108 132 C-108 128.04 -108 124.08 -108 120 C-115.92 120 -123.84 120 -132 120 C-132 116.04 -132 112.08 -132 108 C-159.72 108 -187.44 108 -216 108 C-216 104.04 -216 100.08 -216 96 C-227.88 96 -239.76 96 -252 96 C-252 92.04 -252 88.08 -252 84 C-259.92 84 -267.84 84 -276 84 C-276 80.04 -276 76.08 -276 72 C-287.88 72 -299.76 72 -312 72 C-312 60.12 -312 48.24 -312 36 C-304.08 36 -296.16 36 -288 36 C-288 39.96 -288 43.92 -288 48 C-268.2 48 -248.4 48 -228 48 C-228 44.04 -228 40.08 -228 36 C-220.08 36 -212.16 36 -204 36 C-204 39.96 -204 43.92 -204 48 C-196.08 48 -188.16 48 -180 48 C-180 44.04 -180 40.08 -180 36 C-168.12 36 -156.24 36 -144 36 C-144 32.04 -144 28.08 -144 24 C-136.08 24 -128.16 24 -120 24 C-120 20.04 -120 16.08 -120 12 C-108.12 12 -96.24 12 -84 12 C-84 15.96 -84 19.92 -84 24 C-87.96 24 -91.92 24 -96 24 C-96 35.88 -96 47.76 -96 60 C-80.16 60 -64.32 60 -48 60 C-48 56.04 -48 52.08 -48 48 C-44.04 48 -40.08 48 -36 48 C-36 40.08 -36 32.16 -36 24 C-32.04 24 -28.08 24 -24 24 C-24 20.04 -24 16.08 -24 12 C-16.08 12 -8.16 12 0 12 C0 8.04 0 4.08 0 0 Z " fill="#9464A0" transform="translate(934,794)"/>
<path d="M0 0 C63.36 0 126.72 0 192 0 C192 3.96 192 7.92 192 12 C184.08 12 176.16 12 168 12 C168 15.96 168 19.92 168 24 C160.08 24 152.16 24 144 24 C144 27.96 144 31.92 144 36 C140.04 36 136.08 36 132 36 C132 39.96 132 43.92 132 48 C128.04 48 124.08 48 120 48 C120 51.96 120 55.92 120 60 C116.04 60 112.08 60 108 60 C108 63.96 108 67.92 108 72 C104.04 72 100.08 72 96 72 C96 75.96 96 79.92 96 84 C103.92 84 111.84 84 120 84 C120 87.96 120 91.92 120 96 C116.04 96 112.08 96 108 96 C108 99.96 108 103.92 108 108 C104.04 108 100.08 108 96 108 C96 111.96 96 115.92 96 120 C88.08 120 80.16 120 72 120 C72 116.04 72 112.08 72 108 C68.04 108 64.08 108 60 108 C60 111.96 60 115.92 60 120 C56.04 120 52.08 120 48 120 C48 123.96 48 127.92 48 132 C44.04 132 40.08 132 36 132 C36 135.96 36 139.92 36 144 C32.04 144 28.08 144 24 144 C24 147.96 24 151.92 24 156 C20.04 156 16.08 156 12 156 C12 159.96 12 163.92 12 168 C8.04 168 4.08 168 0 168 C0 171.96 0 175.92 0 180 C-3.96 180 -7.92 180 -12 180 C-12 187.92 -12 195.84 -12 204 C-15.96 204 -19.92 204 -24 204 C-24 207.96 -24 211.92 -24 216 C-27.96 216 -31.92 216 -36 216 C-36 223.92 -36 231.84 -36 240 C-39.96 240 -43.92 240 -48 240 C-48 259.8 -48 279.6 -48 300 C-51.96 300 -55.92 300 -60 300 C-60 220.8 -60 141.6 -60 60 C-56.04 60 -52.08 60 -48 60 C-48 56.04 -48 52.08 -48 48 C-44.04 48 -40.08 48 -36 48 C-36 44.04 -36 40.08 -36 36 C-32.04 36 -28.08 36 -24 36 C-24 32.04 -24 28.08 -24 24 C-20.04 24 -16.08 24 -12 24 C-12 20.04 -12 16.08 -12 12 C-8.04 12 -4.08 12 0 12 C0 8.04 0 4.08 0 0 Z " fill="#9464A0" transform="translate(142,98)"/>
<path d="M0 0 C51.48 0 102.96 0 156 0 C156 3.96 156 7.92 156 12 C167.88 12 179.76 12 192 12 C192 75.36 192 138.72 192 204 C188.04 204 184.08 204 180 204 C180 211.92 180 219.84 180 228 C176.04 228 172.08 228 168 228 C168 235.92 168 243.84 168 252 C164.04 252 160.08 252 156 252 C156 255.96 156 259.92 156 264 C152.04 264 148.08 264 144 264 C144 267.96 144 271.92 144 276 C140.04 276 136.08 276 132 276 C132 279.96 132 283.92 132 288 C128.04 288 124.08 288 120 288 C120 291.96 120 295.92 120 300 C116.04 300 112.08 300 108 300 C108 303.96 108 307.92 108 312 C104.04 312 100.08 312 96 312 C96 315.96 96 319.92 96 324 C92.04 324 88.08 324 84 324 C84 327.96 84 331.92 84 336 C80.04 336 76.08 336 72 336 C72 339.96 72 343.92 72 348 C64.08 348 56.16 348 48 348 C48 351.96 48 355.92 48 360 C40.08 360 32.16 360 24 360 C24 363.96 24 367.92 24 372 C16.08 372 8.16 372 0 372 C0 375.96 0 379.92 0 384 C-67.32 384 -134.64 384 -204 384 C-204 380.04 -204 376.08 -204 372 C-148.56 372 -93.12 372 -36 372 C-36 368.04 -36 364.08 -36 360 C-24.12 360 -12.24 360 0 360 C0 352.08 0 344.16 0 336 C3.96 336 7.92 336 12 336 C12 332.04 12 328.08 12 324 C19.92 324 27.84 324 36 324 C36 320.04 36 316.08 36 312 C39.96 312 43.92 312 48 312 C48 308.04 48 304.08 48 300 C59.88 300 71.76 300 84 300 C84 296.04 84 292.08 84 288 C87.96 288 91.92 288 96 288 C96 280.08 96 272.16 96 264 C99.96 264 103.92 264 108 264 C108 260.04 108 256.08 108 252 C111.96 252 115.92 252 120 252 C120 248.04 120 244.08 120 240 C123.96 240 127.92 240 132 240 C132 236.04 132 232.08 132 228 C139.92 228 147.84 228 156 228 C156 224.04 156 220.08 156 216 C159.96 216 163.92 216 168 216 C168 204.12 168 192.24 168 180 C171.96 180 175.92 180 180 180 C180 172.08 180 164.16 180 156 C183.63 156 187.26 156 191 156 C191 116.4 191 76.8 191 36 C163.61 36 136.22 36 108 36 C108 43.92 108 51.84 108 60 C104.04 60 100.08 60 96 60 C96 63.96 96 67.92 96 72 C92.04 72 88.08 72 84 72 C84 75.96 84 79.92 84 84 C68.16 84 52.32 84 36 84 C36 80.04 36 76.08 36 72 C32.04 72 28.08 72 24 72 C24 68.04 24 64.08 24 60 C20.04 60 16.08 60 12 60 C12 52.08 12 44.16 12 36 C-3.84 36 -19.68 36 -36 36 C-36 28.08 -36 20.16 -36 12 C-24.12 12 -12.24 12 0 12 C0 8.04 0 4.08 0 0 Z " fill="#FDCFAA" transform="translate(622,422)"/>
<path d="M0 0 C47.52 0 95.04 0 144 0 C144 3.96 144 7.92 144 12 C147.96 12 151.92 12 156 12 C156 15.96 156 19.92 156 24 C159.96 24 163.92 24 168 24 C168 27.96 168 31.92 168 36 C171.96 36 175.92 36 180 36 C180 39.96 180 43.92 180 48 C183.96 48 187.92 48 192 48 C192 127.2 192 206.4 192 288 C188.04 288 184.08 288 180 288 C180 280.08 180 272.16 180 264 C176.04 264 172.08 264 168 264 C168 252.12 168 240.24 168 228 C164.04 228 160.08 228 156 228 C156 212.16 156 196.32 156 180 C152.04 180 148.08 180 144 180 C144 172.08 144 164.16 144 156 C140.04 156 136.08 156 132 156 C132 148.08 132 140.16 132 132 C128.04 132 124.08 132 120 132 C120 128.04 120 124.08 120 120 C116.04 120 112.08 120 108 120 C108 112.08 108 104.16 108 96 C104.04 96 100.08 96 96 96 C96 92.04 96 88.08 96 84 C92.04 84 88.08 84 84 84 C84 80.04 84 76.08 84 72 C80.04 72 76.08 72 72 72 C72 68.04 72 64.08 72 60 C68.04 60 64.08 60 60 60 C60 56.04 60 52.08 60 48 C56.04 48 52.08 48 48 48 C48 44.04 48 40.08 48 36 C44.04 36 40.08 36 36 36 C36 32.04 36 28.08 36 24 C32.04 24 28.08 24 24 24 C24 20.04 24 16.08 24 12 C16.08 12 8.16 12 0 12 C0 8.04 0 4.08 0 0 Z " fill="#9565A1" transform="translate(742,98)"/>
<path d="M0 0 C7.92 0 15.84 0 24 0 C24 3.96 24 7.92 24 12 C31.92 12 39.84 12 48 12 C48 15.96 48 19.92 48 24 C51.96 24 55.92 24 60 24 C60 27.96 60 31.92 60 36 C63.96 36 67.92 36 72 36 C72 39.96 72 43.92 72 48 C75.96 48 79.92 48 84 48 C84 51.96 84 55.92 84 60 C87.96 60 91.92 60 96 60 C96 63.96 96 67.92 96 72 C99.96 72 103.92 72 108 72 C108 75.96 108 79.92 108 84 C115.92 84 123.84 84 132 84 C132 87.96 132 91.92 132 96 C139.92 96 147.84 96 156 96 C156 99.96 156 103.92 156 108 C159.96 108 163.92 108 168 108 C168 111.96 168 115.92 168 120 C171.96 120 175.92 120 180 120 C180 123.96 180 127.92 180 132 C183.96 132 187.92 132 192 132 C192 135.96 192 139.92 192 144 C199.92 144 207.84 144 216 144 C216 147.96 216 151.92 216 156 C219.96 156 223.92 156 228 156 C228 159.96 228 163.92 228 168 C231.96 168 235.92 168 240 168 C240 171.96 240 175.92 240 180 C247.92 180 255.84 180 264 180 C264 183.96 264 187.92 264 192 C252.12 192 240.24 192 228 192 C228 188.04 228 184.08 228 180 C224.04 180 220.08 180 216 180 C216 176.04 216 172.08 216 168 C196.2 168 176.4 168 156 168 C156 164.04 156 160.08 156 156 C148.08 156 140.16 156 132 156 C132 148.08 132 140.16 132 132 C92.4 132 52.8 132 12 132 C12 139.92 12 147.84 12 156 C8.04 156 4.08 156 0 156 C0 163.92 0 171.84 0 180 C-11.88 180 -23.76 180 -36 180 C-36 176.04 -36 172.08 -36 168 C-39.96 168 -43.92 168 -48 168 C-48 164.04 -48 160.08 -48 156 C-55.92 156 -63.84 156 -72 156 C-72 148.08 -72 140.16 -72 132 C-60.12 132 -48.24 132 -36 132 C-36 135.96 -36 139.92 -36 144 C-32.04 144 -28.08 144 -24 144 C-24 147.96 -24 151.92 -24 156 C-20.37 156 -16.74 156 -13 156 C-13 132.24 -13 108.48 -13 84 C-8.71 84 -4.42 84 0 84 C0 56.28 0 28.56 0 0 Z " fill="#8B5FB2" transform="translate(586,230)"/>
<path d="M0 0 C51.48 0 102.96 0 156 0 C156 3.96 156 7.92 156 12 C163.92 12 171.84 12 180 12 C180 19.92 180 27.84 180 36 C156.24 36 132.48 36 108 36 C108 43.92 108 51.84 108 60 C104.04 60 100.08 60 96 60 C96 63.96 96 67.92 96 72 C92.04 72 88.08 72 84 72 C84 75.96 84 79.92 84 84 C68.16 84 52.32 84 36 84 C36 80.04 36 76.08 36 72 C32.04 72 28.08 72 24 72 C24 68.04 24 64.08 24 60 C20.04 60 16.08 60 12 60 C12 52.08 12 44.16 12 36 C-3.84 36 -19.68 36 -36 36 C-36 28.08 -36 20.16 -36 12 C-24.12 12 -12.24 12 0 12 C0 8.04 0 4.08 0 0 Z " fill="#3B254F" transform="translate(622,422)"/>
<path d="M0 0 C0.33 0 0.66 0 1 0 C1 7.92 1 15.84 1 24 C4.96 24 8.92 24 13 24 C13 27.96 13 31.92 13 36 C16.96 36 20.92 36 25 36 C25 39.96 25 43.92 25 48 C28.96 48 32.92 48 37 48 C37 51.96 37 55.92 37 60 C40.96 60 44.92 60 49 60 C49 63.96 49 67.92 49 72 C52.96 72 56.92 72 61 72 C61 75.96 61 79.92 61 84 C64.96 84 68.92 84 73 84 C73 87.96 73 91.92 73 96 C80.59 96 88.18 96 96 96 C96 99.96 96 103.92 96 108 C84.45 108 72.9 108 61 108 C61 104.04 61 100.08 61 96 C53.08 96 45.16 96 37 96 C37 99.96 37 103.92 37 108 C33.04 108 29.08 108 25 108 C25 111.96 25 115.92 25 120 C21.04 120 17.08 120 13 120 C13 123.96 13 127.92 13 132 C-3.17 132 -19.34 132 -36 132 C-36 128.04 -36 124.08 -36 120 C-39.63 120 -43.26 120 -47 120 C-47 123.96 -47 127.92 -47 132 C-50.96 132 -54.92 132 -59 132 C-59 124.08 -59 116.16 -59 108 C-55.04 108 -51.08 108 -47 108 C-47 92.16 -47 76.32 -47 60 C-39.08 60 -31.16 60 -23 60 C-23 56.04 -23 52.08 -23 48 C-26.96 48 -30.92 48 -35 48 C-35 44.04 -35 40.08 -35 36 C-31.04 36 -27.08 36 -23 36 C-23 32.04 -23 28.08 -23 24 C-15.41 24 -7.82 24 0 24 C0 16.08 0 8.16 0 0 Z " fill="#805EB0" transform="translate(297,686)"/>
<path d="M0 0 C3.96 0 7.92 0 12 0 C12 7.92 12 15.84 12 24 C19.92 24 27.84 24 36 24 C36 31.92 36 39.84 36 48 C28.08 48 20.16 48 12 48 C12 71.76 12 95.52 12 120 C35.76 120 59.52 120 84 120 C84 116.04 84 112.08 84 108 C99.84 108 115.68 108 132 108 C132 111.96 132 115.92 132 120 C135.96 120 139.92 120 144 120 C144 123.96 144 127.92 144 132 C147.96 132 151.92 132 156 132 C156 139.92 156 147.84 156 156 C148.08 156 140.16 156 132 156 C132 148.08 132 140.16 132 132 C92.4 132 52.8 132 12 132 C12 139.92 12 147.84 12 156 C8.04 156 4.08 156 0 156 C0 163.92 0 171.84 0 180 C-11.88 180 -23.76 180 -36 180 C-36 176.04 -36 172.08 -36 168 C-39.96 168 -43.92 168 -48 168 C-48 164.04 -48 160.08 -48 156 C-55.92 156 -63.84 156 -72 156 C-72 148.08 -72 140.16 -72 132 C-60.12 132 -48.24 132 -36 132 C-36 135.96 -36 139.92 -36 144 C-32.04 144 -28.08 144 -24 144 C-24 147.96 -24 151.92 -24 156 C-20.37 156 -16.74 156 -13 156 C-13 132.24 -13 108.48 -13 84 C-8.71 84 -4.42 84 0 84 C0 56.28 0 28.56 0 0 Z " fill="#412D51" transform="translate(586,230)"/>
<path d="M0 0 C15.84 0 31.68 0 48 0 C48 3.96 48 7.92 48 12 C51.96 12 55.92 12 60 12 C60 15.96 60 19.92 60 24 C67.92 24 75.84 24 84 24 C84 31.92 84 39.84 84 48 C76.08 48 68.16 48 60 48 C60 51.96 60 55.92 60 60 C52.08 60 44.16 60 36 60 C36 63.96 36 67.92 36 72 C32.04 72 28.08 72 24 72 C24 75.96 24 79.92 24 84 C20.04 84 16.08 84 12 84 C12 87.96 12 91.92 12 96 C-15.72 96 -43.44 96 -72 96 C-72 88.08 -72 80.16 -72 72 C-68.04 72 -64.08 72 -60 72 C-60 68.04 -60 64.08 -60 60 C-56.04 60 -52.08 60 -48 60 C-48 56.04 -48 52.08 -48 48 C-44.04 48 -40.08 48 -36 48 C-36 51.96 -36 55.92 -36 60 C-28.08 60 -20.16 60 -12 60 C-12 56.04 -12 52.08 -12 48 C-8.04 48 -4.08 48 0 48 C0 44.04 0 40.08 0 36 C3.96 36 7.92 36 12 36 C12 32.04 12 28.08 12 24 C4.08 24 -3.84 24 -12 24 C-12 20.04 -12 16.08 -12 12 C-8.04 12 -4.08 12 0 12 C0 8.04 0 4.08 0 0 Z " fill="#B899CC" transform="translate(250,158)"/>
<path d="M0 0 C3.96 0 7.92 0 12 0 C12 47.52 12 95.04 12 144 C8.04 144 4.08 144 0 144 C0 179.64 0 215.28 0 252 C19.47 252 38.94 252 59 252 C59 248.04 59 244.08 59 240 C62.96 240 66.92 240 71 240 C71 243.96 71 247.92 71 252 C67.37 252 63.74 252 60 252 C60 255.96 60 259.92 60 264 C44.16 264 28.32 264 12 264 C12 267.96 12 271.92 12 276 C3.75 276 -4.5 276 -13 276 C-13 272.04 -13 268.08 -13 264 C-16.63 264 -20.26 264 -24 264 C-24 248.16 -24 232.32 -24 216 C-20.37 216 -16.74 216 -13 216 C-13 192.24 -13 168.48 -13 144 C-9.04 144 -5.08 144 -1 144 C-1 104.4 -1 64.8 -1 24 C-4.63 24 -8.26 24 -12 24 C-12 31.92 -12 39.84 -12 48 C-15.96 48 -19.92 48 -24 48 C-24 51.96 -24 55.92 -24 60 C-40.17 60 -56.34 60 -73 60 C-73 56.04 -73 52.08 -73 48 C-76.63 48 -80.26 48 -84 48 C-84 40.08 -84 32.16 -84 24 C-80.04 24 -76.08 24 -72 24 C-72 31.92 -72 39.84 -72 48 C-56.49 48 -40.98 48 -25 48 C-25 40.08 -25 32.16 -25 24 C-21.04 24 -17.08 24 -13 24 C-13 20.04 -13 16.08 -13 12 C-8.71 12 -4.42 12 0 12 C0 8.04 0 4.08 0 0 Z " fill="#78579F" transform="translate(166,578)"/>
<path d="M0 0 C7.92 0 15.84 0 24 0 C24 3.96 24 7.92 24 12 C20.04 12 16.08 12 12 12 C12 23.88 12 35.76 12 48 C8.04 48 4.08 48 0 48 C0 59.88 0 71.76 0 84 C-3.96 84 -7.92 84 -12 84 C-12 95.88 -12 107.76 -12 120 C-15.96 120 -19.92 120 -24 120 C-24 123.96 -24 127.92 -24 132 C-16.08 132 -8.16 132 0 132 C0 128.04 0 124.08 0 120 C7.92 120 15.84 120 24 120 C24 123.96 24 127.92 24 132 C20.04 132 16.08 132 12 132 C12 135.96 12 139.92 12 144 C-3.84 144 -19.68 144 -36 144 C-36 132.12 -36 120.24 -36 108 C-32.04 108 -28.08 108 -24 108 C-24 104.04 -24 100.08 -24 96 C-35.88 96 -47.76 96 -60 96 C-60 99.96 -60 103.92 -60 108 C-67.92 108 -75.84 108 -84 108 C-84 111.96 -84 115.92 -84 120 C-95.88 120 -107.76 120 -120 120 C-120 116.04 -120 112.08 -120 108 C-112.08 108 -104.16 108 -96 108 C-96 104.04 -96 100.08 -96 96 C-88.08 96 -80.16 96 -72 96 C-72 92.04 -72 88.08 -72 84 C-60.12 84 -48.24 84 -36 84 C-36 80.04 -36 76.08 -36 72 C-28.08 72 -20.16 72 -12 72 C-12 60.12 -12 48.24 -12 36 C-8.04 36 -4.08 36 0 36 C0 24.12 0 12.24 0 0 Z " fill="#382646" transform="translate(874,710)"/>
<path d="M0 0 C7.92 0 15.84 0 24 0 C24 3.96 24 7.92 24 12 C27.96 12 31.92 12 36 12 C36 15.96 36 19.92 36 24 C47.88 24 59.76 24 72 24 C72 27.96 72 31.92 72 36 C64.08 36 56.16 36 48 36 C48 79.56 48 123.12 48 168 C55.92 168 63.84 168 72 168 C72 171.96 72 175.92 72 180 C64.08 180 56.16 180 48 180 C48 195.84 48 211.68 48 228 C44.04 228 40.08 228 36 228 C36 164.64 36 101.28 36 36 C32.04 36 28.08 36 24 36 C24 32.04 24 28.08 24 24 C20.04 24 16.08 24 12 24 C12 20.04 12 16.08 12 12 C8.04 12 4.08 12 0 12 C0 8.04 0 4.08 0 0 Z " fill="#392746" transform="translate(778,398)"/>
<path d="M0 0 C31.35 0 62.7 0 95 0 C95 7.92 95 15.84 95 24 C91.37 24 87.74 24 84 24 C84 27.96 84 31.92 84 36 C80.04 36 76.08 36 72 36 C72 39.96 72 43.92 72 48 C56.16 48 40.32 48 24 48 C24 44.04 24 40.08 24 36 C20.04 36 16.08 36 12 36 C12 32.04 12 28.08 12 24 C8.04 24 4.08 24 0 24 C0 16.08 0 8.16 0 0 Z " fill="#191A37" transform="translate(634,458)"/>
<path d="M0 0 C31.35 0 62.7 0 95 0 C95 7.92 95 15.84 95 24 C91.37 24 87.74 24 84 24 C84 27.96 84 31.92 84 36 C80.04 36 76.08 36 72 36 C72 39.96 72 43.92 72 48 C56.16 48 40.32 48 24 48 C24 44.04 24 40.08 24 36 C20.04 36 16.08 36 12 36 C12 32.04 12 28.08 12 24 C8.04 24 4.08 24 0 24 C0 16.08 0 8.16 0 0 Z " fill="#191A37" transform="translate(334,458)"/>
<path d="M0 0 C7.92 0 15.84 0 24 0 C24 43.56 24 87.12 24 132 C16.08 132 8.16 132 0 132 C0 88.44 0 44.88 0 0 Z " fill="#F9D2B4" transform="translate(826,434)"/>
<path d="M0 0 C11.88 0 23.76 0 36 0 C36 7.92 36 15.84 36 24 C32.04 24 28.08 24 24 24 C24 35.88 24 47.76 24 60 C16.08 60 8.16 60 0 60 C0 107.52 0 155.04 0 204 C-0.33 204 -0.66 204 -1 204 C-1 160.44 -1 116.88 -1 72 C-4.63 72 -8.26 72 -12 72 C-12 68.04 -12 64.08 -12 60 C-15.96 60 -19.92 60 -24 60 C-24 63.96 -24 67.92 -24 72 C-27.96 72 -31.92 72 -36 72 C-36 64.08 -36 56.16 -36 48 C-32.04 48 -28.08 48 -24 48 C-24 40.08 -24 32.16 -24 24 C-16.08 24 -8.16 24 0 24 C0 16.08 0 8.16 0 0 Z " fill="#845FB1" transform="translate(190,518)"/>
<path d="M0 0 C3.96 0 7.92 0 12 0 C12 47.52 12 95.04 12 144 C8.04 144 4.08 144 0 144 C0 104.4 0 64.8 0 24 C-3.96 24 -7.92 24 -12 24 C-12 31.92 -12 39.84 -12 48 C-15.96 48 -19.92 48 -24 48 C-24 51.96 -24 55.92 -24 60 C-40.17 60 -56.34 60 -73 60 C-73 56.04 -73 52.08 -73 48 C-76.63 48 -80.26 48 -84 48 C-84 40.08 -84 32.16 -84 24 C-80.04 24 -76.08 24 -72 24 C-72 31.92 -72 39.84 -72 48 C-56.49 48 -40.98 48 -25 48 C-25 40.08 -25 32.16 -25 24 C-21.04 24 -17.08 24 -13 24 C-13 20.04 -13 16.08 -13 12 C-8.71 12 -4.42 12 0 12 C0 8.04 0 4.08 0 0 Z " fill="#392747" transform="translate(166,578)"/>
<path d="M0 0 C7.92 0 15.84 0 24 0 C24 11.88 24 23.76 24 36 C27.96 36 31.92 36 36 36 C36 39.96 36 43.92 36 48 C43.92 48 51.84 48 60 48 C60 51.96 60 55.92 60 60 C63.96 60 67.92 60 72 60 C72 63.96 72 67.92 72 72 C48.24 72 24.48 72 0 72 C0 48.24 0 24.48 0 0 Z " fill="#E3C2BF" transform="translate(598,278)"/>
<path d="M0 0 C3.96 0 7.92 0 12 0 C12 19.8 12 39.6 12 60 C8.04 60 4.08 60 0 60 C0 67.92 0 75.84 0 84 C7.92 84 15.84 84 24 84 C24 87.96 24 91.92 24 96 C20.04 96 16.08 96 12 96 C12 99.96 12 103.92 12 108 C4.08 108 -3.84 108 -12 108 C-12 111.96 -12 115.92 -12 120 C-19.92 120 -27.84 120 -36 120 C-36 116.04 -36 112.08 -36 108 C-32.04 108 -28.08 108 -24 108 C-24 96.12 -24 84.24 -24 72 C-20.04 72 -16.08 72 -12 72 C-12 60.12 -12 48.24 -12 36 C-8.04 36 -4.08 36 0 36 C0 24.12 0 12.24 0 0 Z " fill="#8A5EB1" transform="translate(886,722)"/>
<path d="M0 0 C3.96 0 7.92 0 12 0 C12 35.64 12 71.28 12 108 C8.37 108 4.74 108 1 108 C1 135.72 1 163.44 1 192 C4.63 192 8.26 192 12 192 C12 195.96 12 199.92 12 204 C8.04 204 4.08 204 0 204 C0 200.04 0 196.08 0 192 C-3.63 192 -7.26 192 -11 192 C-11 164.28 -11 136.56 -11 108 C-7.37 108 -3.74 108 0 108 C0 72.36 0 36.72 0 0 Z " fill="#372645" transform="translate(69,398)"/>
<path d="M0 0 C3.96 0 7.92 0 12 0 C12 31.68 12 63.36 12 96 C8.04 96 4.08 96 0 96 C0 107.88 0 119.76 0 132 C-3.96 132 -7.92 132 -12 132 C-12 135.96 -12 139.92 -12 144 C-15.96 144 -19.92 144 -24 144 C-24 132.12 -24 120.24 -24 108 C-20.04 108 -16.08 108 -12 108 C-12 100.08 -12 92.16 -12 84 C-8.04 84 -4.08 84 0 84 C0 56.28 0 28.56 0 0 Z " fill="#382746" transform="translate(982,650)"/>
<path d="M0 0 C3.96 0 7.92 0 12 0 C12 15.84 12 31.68 12 48 C-15.72 48 -43.44 48 -72 48 C-72 44.04 -72 40.08 -72 36 C-64.08 36 -56.16 36 -48 36 C-48 32.04 -48 28.08 -48 24 C-36.12 24 -24.24 24 -12 24 C-12 20.04 -12 16.08 -12 12 C-8.04 12 -4.08 12 0 12 C0 8.04 0 4.08 0 0 Z " fill="#E4C3C0" transform="translate(394,302)"/>
<path d="M0 0 C3.96 0 7.92 0 12 0 C12 3.96 12 7.92 12 12 C15.96 12 19.92 12 24 12 C24 15.96 24 19.92 24 24 C27.96 24 31.92 24 36 24 C36 27.96 36 31.92 36 36 C39.96 36 43.92 36 48 36 C48 39.96 48 43.92 48 48 C51.96 48 55.92 48 60 48 C60 51.96 60 55.92 60 60 C63.96 60 67.92 60 72 60 C72 63.96 72 67.92 72 72 C79.59 72 87.18 72 95 72 C95 75.96 95 79.92 95 84 C83.45 84 71.9 84 60 84 C60 80.04 60 76.08 60 72 C52.08 72 44.16 72 36 72 C36 64.08 36 56.16 36 48 C32.04 48 28.08 48 24 48 C24 44.04 24 40.08 24 36 C20.04 36 16.08 36 12 36 C12 32.04 12 28.08 12 24 C8.04 24 4.08 24 0 24 C0 16.08 0 8.16 0 0 Z " fill="#3A2947" transform="translate(298,710)"/>
<path d="M0 0 C55.44 0 110.88 0 168 0 C168 3.96 168 7.92 168 12 C112.56 12 57.12 12 0 12 C0 8.04 0 4.08 0 0 Z " fill="#FFD8B5" transform="translate(418,794)"/>
<path d="M0 0 C3.96 0 7.92 0 12 0 C12 19.8 12 39.6 12 60 C27.51 60 43.02 60 59 60 C59 56.04 59 52.08 59 48 C62.96 48 66.92 48 71 48 C71 51.96 71 55.92 71 60 C67.37 60 63.74 60 60 60 C60 63.96 60 67.92 60 72 C43.83 72 27.66 72 11 72 C11 68.04 11 64.08 11 60 C7.37 60 3.74 60 0 60 C0 63.96 0 67.92 0 72 C-3.96 72 -7.92 72 -12 72 C-12 64.08 -12 56.16 -12 48 C-8.04 48 -4.08 48 0 48 C0 32.16 0 16.32 0 0 Z " fill="#372645" transform="translate(250,746)"/>
<path d="M0 0 C3.96 0 7.92 0 12 0 C12 47.52 12 95.04 12 144 C8.04 144 4.08 144 0 144 C0 96.48 0 48.96 0 0 Z " fill="#392747" transform="translate(946,422)"/>
<path d="M0 0 C3.96 0 7.92 0 12 0 C12 63.36 12 126.72 12 192 C8.04 192 4.08 192 0 192 C0 199.92 0 207.84 0 216 C-7.92 216 -15.84 216 -24 216 C-24 212.04 -24 208.08 -24 204 C-20.04 204 -16.08 204 -12 204 C-12 192.12 -12 180.24 -12 168 C-8.04 168 -4.08 168 0 168 C0 160.08 0 152.16 0 144 C3.63 144 7.26 144 11 144 C11 104.4 11 64.8 11 24 C7.37 24 3.74 24 0 24 C0 16.08 0 8.16 0 0 Z " fill="#FED7B4" transform="translate(802,434)"/>
<path d="M0 0 C3.96 0 7.92 0 12 0 C12 43.56 12 87.12 12 132 C8.04 132 4.08 132 0 132 C0 88.44 0 44.88 0 0 Z " fill="#382747" transform="translate(850,434)"/>
<path d="M0 0 C0.33 0 0.66 0 1 0 C1 27.72 1 55.44 1 84 C-10.88 84 -22.76 84 -35 84 C-35 80.04 -35 76.08 -35 72 C-42.92 72 -50.84 72 -59 72 C-59 64.08 -59 56.16 -59 48 C-47.12 48 -35.24 48 -23 48 C-23 51.96 -23 55.92 -23 60 C-19.04 60 -15.08 60 -11 60 C-11 63.96 -11 67.92 -11 72 C-7.37 72 -3.74 72 0 72 C0 48.24 0 24.48 0 0 Z " fill="#895EAF" transform="translate(573,314)"/>
<path d="M0 0 C3.63 0 7.26 0 11 0 C11 43.56 11 87.12 11 132 C7.37 132 3.74 132 0 132 C0 88.44 0 44.88 0 0 Z " fill="#815FB2" transform="translate(178,590)"/>
<path d="M0 0 C3.96 0 7.92 0 12 0 C12 7.92 12 15.84 12 24 C8.04 24 4.08 24 0 24 C0 31.92 0 39.84 0 48 C3.96 48 7.92 48 12 48 C12 51.96 12 55.92 12 60 C4.08 60 -3.84 60 -12 60 C-12 56.04 -12 52.08 -12 48 C-19.92 48 -27.84 48 -36 48 C-36 44.04 -36 40.08 -36 36 C-32.04 36 -28.08 36 -24 36 C-24 32.04 -24 28.08 -24 24 C-20.04 24 -16.08 24 -12 24 C-12 20.04 -12 16.08 -12 12 C-8.04 12 -4.08 12 0 12 C0 8.04 0 4.08 0 0 Z " fill="#382646" transform="translate(742,782)"/>
<path d="M0 0 C7.92 0 15.84 0 24 0 C24 7.92 24 15.84 24 24 C31.92 24 39.84 24 48 24 C48 27.96 48 31.92 48 36 C51.96 36 55.92 36 60 36 C60 39.96 60 43.92 60 48 C48.12 48 36.24 48 24 48 C24 44.04 24 40.08 24 36 C20.04 36 16.08 36 12 36 C12 32.04 12 28.08 12 24 C8.04 24 4.08 24 0 24 C0 16.08 0 8.16 0 0 Z " fill="#E2C1BF" transform="translate(490,362)"/>
<path d="M0 0 C0.33 0 0.66 0 1 0 C1 3.96 1 7.92 1 12 C28.72 12 56.44 12 85 12 C85 15.96 85 19.92 85 24 C53.32 24 21.64 24 -11 24 C-11 20.04 -11 16.08 -11 12 C-7.37 12 -3.74 12 0 12 C0 8.04 0 4.08 0 0 Z " fill="#573D6E" transform="translate(321,338)"/>
<path d="M0 0 C7.92 0 15.84 0 24 0 C24 3.96 24 7.92 24 12 C20.04 12 16.08 12 12 12 C12 15.96 12 19.92 12 24 C8.04 24 4.08 24 0 24 C0 27.96 0 31.92 0 36 C-11.88 36 -23.76 36 -36 36 C-36 32.04 -36 28.08 -36 24 C-32.04 24 -28.08 24 -24 24 C-24 20.04 -24 16.08 -24 12 C-16.08 12 -8.16 12 0 12 C0 8.04 0 4.08 0 0 Z " fill="#382746" transform="translate(934,794)"/>
<path d="M0 0 C15.84 0 31.68 0 48 0 C48 7.92 48 15.84 48 24 C32.16 24 16.32 24 0 24 C0 16.08 0 8.16 0 0 Z " fill="#FCB891" transform="translate(346,554)"/>
<path d="M0 0 C7.92 0 15.84 0 24 0 C24 11.88 24 23.76 24 36 C16.08 36 8.16 36 0 36 C0 39.96 0 43.92 0 48 C-3.96 48 -7.92 48 -12 48 C-12 40.08 -12 32.16 -12 24 C-8.04 24 -4.08 24 0 24 C0 16.08 0 8.16 0 0 Z " fill="#E4C4C0" transform="translate(598,362)"/>
<path d="M0 0 C11.88 0 23.76 0 36 0 C36 3.96 36 7.92 36 12 C32.04 12 28.08 12 24 12 C24 15.96 24 19.92 24 24 C20.04 24 16.08 24 12 24 C12 27.96 12 31.92 12 36 C4.08 36 -3.84 36 -12 36 C-12 28.08 -12 20.16 -12 12 C-8.04 12 -4.08 12 0 12 C0 8.04 0 4.08 0 0 Z " fill="#9B6EB8" transform="translate(226,182)"/>
<path d="M0 0 C3.96 0 7.92 0 12 0 C12 11.88 12 23.76 12 36 C27.84 36 43.68 36 60 36 C60 39.96 60 43.92 60 48 C40.2 48 20.4 48 0 48 C0 32.16 0 16.32 0 0 Z " fill="#382746" transform="translate(538,14)"/>
<path d="M0 0 C3.96 0 7.92 0 12 0 C12 3.96 12 7.92 12 12 C8.37 12 4.74 12 1 12 C1 15.96 1 19.92 1 24 C-14.84 24 -30.68 24 -47 24 C-47 27.96 -47 31.92 -47 36 C-54.92 36 -62.84 36 -71 36 C-71 32.04 -71 28.08 -71 24 C-63.41 24 -55.82 24 -48 24 C-48 20.04 -48 16.08 -48 12 C-32.16 12 -16.32 12 0 12 C0 8.04 0 4.08 0 0 Z " fill="#372645" transform="translate(225,818)"/>
<path d="M0 0 C3.96 0 7.92 0 12 0 C12 7.92 12 15.84 12 24 C8.37 24 4.74 24 1 24 C1 43.8 1 63.6 1 84 C-2.96 84 -6.92 84 -11 84 C-11 64.2 -11 44.4 -11 24 C-7.37 24 -3.74 24 0 24 C0 16.08 0 8.16 0 0 Z " fill="#372645" transform="translate(93,314)"/>
<path d="M0 0 C3.63 0 7.26 0 11 0 C11 27.72 11 55.44 11 84 C7.37 84 3.74 84 0 84 C0 56.28 0 28.56 0 0 Z " fill="#372645" transform="translate(58,506)"/>
<path d="M0 0 C3.96 0 7.92 0 12 0 C12 23.76 12 47.52 12 72 C8.04 72 4.08 72 0 72 C0 48.24 0 24.48 0 0 Z " fill="#815FB1" transform="translate(166,722)"/>
<path d="M0 0 C11.88 0 23.76 0 36 0 C36 3.96 36 7.92 36 12 C32.04 12 28.08 12 24 12 C24 15.96 24 19.92 24 24 C12.12 24 0.24 24 -12 24 C-12 20.04 -12 16.08 -12 12 C-8.04 12 -4.08 12 0 12 C0 8.04 0 4.08 0 0 Z " fill="#FFD7B4" transform="translate(670,722)"/>
<path d="M0 0 C3.96 0 7.92 0 12 0 C12 7.92 12 15.84 12 24 C15.96 24 19.92 24 24 24 C24 31.92 24 39.84 24 48 C16.08 48 8.16 48 0 48 C0 32.16 0 16.32 0 0 Z " fill="#8B5FB2" transform="translate(514,314)"/>
<path d="M0 0 C3.96 0 7.92 0 12 0 C12 7.92 12 15.84 12 24 C15.96 24 19.92 24 24 24 C24 27.96 24 31.92 24 36 C27.96 36 31.92 36 36 36 C36 39.96 36 43.92 36 48 C28.08 48 20.16 48 12 48 C12 44.04 12 40.08 12 36 C8.04 36 4.08 36 0 36 C0 24.12 0 12.24 0 0 Z " fill="#8B5FB2" transform="translate(418,314)"/>
<path d="M0 0 C3.96 0 7.92 0 12 0 C12 7.92 12 15.84 12 24 C15.96 24 19.92 24 24 24 C24 27.96 24 31.92 24 36 C27.96 36 31.92 36 36 36 C36 39.96 36 43.92 36 48 C28.08 48 20.16 48 12 48 C12 44.04 12 40.08 12 36 C8.04 36 4.08 36 0 36 C0 24.12 0 12.24 0 0 Z " fill="#382646" transform="translate(622,278)"/>
<path d="M0 0 C7.92 0 15.84 0 24 0 C24 19.8 24 39.6 24 60 C20.04 60 16.08 60 12 60 C12 44.16 12 28.32 12 12 C8.04 12 4.08 12 0 12 C0 8.04 0 4.08 0 0 Z " fill="#875CAD" transform="translate(514,2)"/>
<path d="M0 0 C3.96 0 7.92 0 12 0 C12 15.84 12 31.68 12 48 C0.12 48 -11.76 48 -24 48 C-24 44.04 -24 40.08 -24 36 C-16.08 36 -8.16 36 0 36 C0 24.12 0 12.24 0 0 Z " fill="#382746" transform="translate(502,14)"/>
<path d="M0 0 C15.51 0 31.02 0 47 0 C47 3.96 47 7.92 47 12 C35.45 12 23.9 12 12 12 C12 15.96 12 19.92 12 24 C4.08 24 -3.84 24 -12 24 C-12 20.04 -12 16.08 -12 12 C-8.04 12 -4.08 12 0 12 C0 8.04 0 4.08 0 0 Z " fill="#8A5EB1" transform="translate(790,782)"/>
<path d="M0 0 C11.55 0 23.1 0 35 0 C35 7.92 35 15.84 35 24 C23.45 24 11.9 24 0 24 C0 16.08 0 8.16 0 0 Z " fill="#815FB2" transform="translate(106,602)"/>
<path d="M0 0 C3.63 0 7.26 0 11 0 C11 23.76 11 47.52 11 72 C7.37 72 3.74 72 0 72 C0 48.24 0 24.48 0 0 Z " fill="#372645" transform="translate(154,722)"/>
<path d="M0 0 C0.33 0 0.66 0 1 0 C1 11.88 1 23.76 1 36 C0.67 36 0.34 36 0 36 C0 32.04 0 28.08 0 24 C-3.96 24 -7.92 24 -12 24 C-12 27.96 -12 31.92 -12 36 C-19.59 36 -27.18 36 -35 36 C-35 28.08 -35 20.16 -35 12 C-23.45 12 -11.9 12 0 12 C0 8.04 0 4.08 0 0 Z " fill="#7F5DAF" transform="translate(237,794)"/>
<path d="M0 0 C19.8 0 39.6 0 60 0 C60 3.96 60 7.92 60 12 C40.2 12 20.4 12 0 12 C0 8.04 0 4.08 0 0 Z " fill="#382746" transform="translate(646,830)"/>
<path d="M0 0 C19.8 0 39.6 0 60 0 C60 3.96 60 7.92 60 12 C40.2 12 20.4 12 0 12 C0 8.04 0 4.08 0 0 Z " fill="#FEBF95" transform="translate(478,674)"/>
<path d="M0 0 C3.96 0 7.92 0 12 0 C12 19.8 12 39.6 12 60 C8.04 60 4.08 60 0 60 C0 40.2 0 20.4 0 0 Z " fill="#392747" transform="translate(958,566)"/>
<path d="M0 0 C3.96 0 7.92 0 12 0 C12 11.88 12 23.76 12 36 C8.04 36 4.08 36 0 36 C0 39.96 0 43.92 0 48 C-3.96 48 -7.92 48 -12 48 C-12 40.08 -12 32.16 -12 24 C-8.04 24 -4.08 24 0 24 C0 16.08 0 8.16 0 0 Z " fill="#392747" transform="translate(190,518)"/>
<path d="M0 0 C3.96 0 7.92 0 12 0 C12 7.92 12 15.84 12 24 C8.04 24 4.08 24 0 24 C0 27.96 0 31.92 0 36 C-7.92 36 -15.84 36 -24 36 C-24 32.04 -24 28.08 -24 24 C-20.04 24 -16.08 24 -12 24 C-12 20.04 -12 16.08 -12 12 C-8.04 12 -4.08 12 0 12 C0 8.04 0 4.08 0 0 Z " fill="#FEFDFD" transform="translate(730,470)"/>
<path d="M0 0 C19.8 0 39.6 0 60 0 C60 3.96 60 7.92 60 12 C40.2 12 20.4 12 0 12 C0 8.04 0 4.08 0 0 Z " fill="#E4C3C0" transform="translate(430,386)"/>
<path d="M0 0 C3.96 0 7.92 0 12 0 C12 3.96 12 7.92 12 12 C15.96 12 19.92 12 24 12 C24 19.92 24 27.84 24 36 C16.08 36 8.16 36 0 36 C0 24.12 0 12.24 0 0 Z " fill="#382646" transform="translate(718,350)"/>
<path d="M0 0 C3.96 0 7.92 0 12 0 C12 15.84 12 31.68 12 48 C8.04 48 4.08 48 0 48 C0 40.08 0 32.16 0 24 C-3.96 24 -7.92 24 -12 24 C-12 20.04 -12 16.08 -12 12 C-8.04 12 -4.08 12 0 12 C0 8.04 0 4.08 0 0 Z " fill="#E0C0BE" transform="translate(394,302)"/>
<path d="M0 0 C19.8 0 39.6 0 60 0 C60 3.96 60 7.92 60 12 C40.2 12 20.4 12 0 12 C0 8.04 0 4.08 0 0 Z " fill="#372645" transform="translate(598,62)"/>
<path d="M0 0 C19.8 0 39.6 0 60 0 C60 3.96 60 7.92 60 12 C40.2 12 20.4 12 0 12 C0 8.04 0 4.08 0 0 Z " fill="#372645" transform="translate(418,62)"/>
<path d="M0 0 C3.63 0 7.26 0 11 0 C11 3.96 11 7.92 11 12 C15.29 12 19.58 12 24 12 C24 15.96 24 19.92 24 24 C27.63 24 31.26 24 35 24 C35 27.96 35 31.92 35 36 C27.41 36 19.82 36 12 36 C12 32.04 12 28.08 12 24 C8.04 24 4.08 24 0 24 C0 16.08 0 8.16 0 0 Z " fill="#FCFCFD" transform="translate(322,470)"/>
<path d="M0 0 C0.33 0 0.66 0 1 0 C1 3.96 1 7.92 1 12 C16.84 12 32.68 12 49 12 C49 15.96 49 19.92 49 24 C32.83 24 16.66 24 0 24 C0 16.08 0 8.16 0 0 Z " fill="#D2CAC1" transform="translate(357,494)"/>
<path d="M0 0 C7.92 0 15.84 0 24 0 C24 7.92 24 15.84 24 24 C16.08 24 8.16 24 0 24 C0 16.08 0 8.16 0 0 Z " fill="#F7B096" transform="translate(646,554)"/>
<path d="M0 0 C15.84 0 31.68 0 48 0 C48 3.96 48 7.92 48 12 C32.16 12 16.32 12 0 12 C0 8.04 0 4.08 0 0 Z " fill="#D2CAC1" transform="translate(658,506)"/>
<path d="M0 0 C15.84 0 31.68 0 48 0 C48 3.96 48 7.92 48 12 C32.16 12 16.32 12 0 12 C0 8.04 0 4.08 0 0 Z " fill="#252640" transform="translate(658,494)"/>
<path d="M0 0 C15.84 0 31.68 0 48 0 C48 3.96 48 7.92 48 12 C32.16 12 16.32 12 0 12 C0 8.04 0 4.08 0 0 Z " fill="#252640" transform="translate(358,494)"/>
<path d="M0 0 C7.92 0 15.84 0 24 0 C24 7.92 24 15.84 24 24 C16.08 24 8.16 24 0 24 C0 16.08 0 8.16 0 0 Z " fill="#382646" transform="translate(514,362)"/>
<path d="M0 0 C3.96 0 7.92 0 12 0 C12 7.92 12 15.84 12 24 C0.12 24 -11.76 24 -24 24 C-24 20.04 -24 16.08 -24 12 C-16.08 12 -8.16 12 0 12 C0 8.04 0 4.08 0 0 Z " fill="#FEE2C3" transform="translate(382,326)"/>
<path d="M0 0 C3.96 0 7.92 0 12 0 C12 15.84 12 31.68 12 48 C8.04 48 4.08 48 0 48 C0 32.16 0 16.32 0 0 Z " fill="#382746" transform="translate(898,278)"/>
<path d="M0 0 C15.84 0 31.68 0 48 0 C48 3.96 48 7.92 48 12 C32.16 12 16.32 12 0 12 C0 8.04 0 4.08 0 0 Z " fill="#372645" transform="translate(334,86)"/>
<path d="M0 0 C15.84 0 31.68 0 48 0 C48 3.96 48 7.92 48 12 C32.16 12 16.32 12 0 12 C0 8.04 0 4.08 0 0 Z " fill="#372645" transform="translate(658,74)"/>
<path d="M0 0 C11.55 0 23.1 0 35 0 C35 3.96 35 7.92 35 12 C27.41 12 19.82 12 12 12 C12 15.96 12 19.92 12 24 C8.04 24 4.08 24 0 24 C0 16.08 0 8.16 0 0 Z " fill="#8A5EB1" transform="translate(742,806)"/>
<path d="M0 0 C15.51 0 31.02 0 47 0 C47 3.96 47 7.92 47 12 C31.49 12 15.98 12 0 12 C0 8.04 0 4.08 0 0 Z " fill="#372645" transform="translate(670,338)"/>
<path d="M0 0 C3.63 0 7.26 0 11 0 C11 15.84 11 31.68 11 48 C7.37 48 3.74 48 0 48 C0 32.16 0 16.32 0 0 Z " fill="#372645" transform="translate(142,794)"/>
<path d="M0 0 C3.96 0 7.92 0 12 0 C12 63.36 12 126.72 12 192 C11.67 192 11.34 192 11 192 C11 136.56 11 81.12 11 24 C7.37 24 3.74 24 0 24 C0 16.08 0 8.16 0 0 Z " fill="#D9BBB3" transform="translate(802,434)"/>
<path d="M0 0 C11.88 0 23.76 0 36 0 C36 3.96 36 7.92 36 12 C24.12 12 12.24 12 0 12 C0 8.04 0 4.08 0 0 Z " fill="#FDCCA7" transform="translate(586,794)"/>
<path d="M0 0 C3.96 0 7.92 0 12 0 C12 3.96 12 7.92 12 12 C15.96 12 19.92 12 24 12 C24 15.96 24 19.92 24 24 C16.08 24 8.16 24 0 24 C0 16.08 0 8.16 0 0 Z " fill="#FEE2C3" transform="translate(778,410)"/>
<path d="M0 0 C11.88 0 23.76 0 36 0 C36 3.96 36 7.92 36 12 C24.12 12 12.24 12 0 12 C0 8.04 0 4.08 0 0 Z " fill="#E2C1BF" transform="translate(742,398)"/>
<path d="M0 0 C3.96 0 7.92 0 12 0 C12 11.88 12 23.76 12 36 C8.04 36 4.08 36 0 36 C0 24.12 0 12.24 0 0 Z " fill="#392747" transform="translate(934,386)"/>
<path d="M0 0 C11.88 0 23.76 0 36 0 C36 3.96 36 7.92 36 12 C24.12 12 12.24 12 0 12 C0 8.04 0 4.08 0 0 Z " fill="#372646" transform="translate(742,386)"/>
<path d="M0 0 C3.96 0 7.92 0 12 0 C12 11.88 12 23.76 12 36 C8.04 36 4.08 36 0 36 C0 24.12 0 12.24 0 0 Z " fill="#382746" transform="translate(910,326)"/>
<path d="M0 0 C3.96 0 7.92 0 12 0 C12 3.96 12 7.92 12 12 C8.37 12 4.74 12 1 12 C1 19.92 1 27.84 1 36 C-2.96 36 -6.92 36 -11 36 C-11 28.08 -11 20.16 -11 12 C-7.37 12 -3.74 12 0 12 C0 8.04 0 4.08 0 0 Z " fill="#372645" transform="translate(129,266)"/>
<path d="M0 0 C11.88 0 23.76 0 36 0 C36 3.96 36 7.92 36 12 C24.12 12 12.24 12 0 12 C0 8.04 0 4.08 0 0 Z " fill="#372645" transform="translate(706,86)"/>
<path d="M0 0 C11.88 0 23.76 0 36 0 C36 3.96 36 7.92 36 12 C24.12 12 12.24 12 0 12 C0 8.04 0 4.08 0 0 Z " fill="#372646" transform="translate(382,74)"/>
<path d="M0 0 C3.96 0 7.92 0 12 0 C12 7.59 12 15.18 12 23 C4.08 23 -3.84 23 -12 23 C-12 19.04 -12 15.08 -12 11 C-8.04 11 -4.08 11 0 11 C0 7.37 0 3.74 0 0 Z " fill="#8A5EB1" transform="translate(718,747)"/>
<path d="M0 0 C3.96 0 7.92 0 12 0 C12 7.92 12 15.84 12 24 C27.51 24 43.02 24 59 24 C59 16.08 59 8.16 59 0 C59.33 0 59.66 0 60 0 C60 11.88 60 23.76 60 36 C59.67 36 59.34 36 59 36 C59 32.37 59 28.74 59 25 C43.49 25 27.98 25 12 25 C12 28.63 12 32.26 12 36 C11.67 36 11.34 36 11 36 C11 32.04 11 28.08 11 24 C7.37 24 3.74 24 0 24 C0 16.08 0 8.16 0 0 Z " fill="#402C50" transform="translate(82,602)"/>
<path d="M0 0 C3.96 0 7.92 0 12 0 C12 7.92 12 15.84 12 24 C8.37 24 4.74 24 1 24 C1 43.8 1 63.6 1 84 C0.67 84 0.34 84 0 84 C0 56.28 0 28.56 0 0 Z " fill="#412D50" transform="translate(93,314)"/>
<path d="M0 0 C0.33 0 0.66 0 1 0 C1 63.36 1 126.72 1 192 C4.63 192 8.26 192 12 192 C12 195.96 12 199.92 12 204 C8.04 204 4.08 204 0 204 C0 136.68 0 69.36 0 0 Z " fill="#6F5284" transform="translate(69,398)"/>
<path d="M0 0 C7.92 0 15.84 0 24 0 C24 3.96 24 7.92 24 12 C16.08 12 8.16 12 0 12 C0 8.04 0 4.08 0 0 Z " fill="#FCCCA6" transform="translate(622,782)"/>
<path d="M0 0 C7.92 0 15.84 0 24 0 C24 3.96 24 7.92 24 12 C16.08 12 8.16 12 0 12 C0 8.04 0 4.08 0 0 Z " fill="#3A2847" transform="translate(670,770)"/>
<path d="M0 0 C3.96 0 7.92 0 12 0 C12 7.92 12 15.84 12 24 C8.04 24 4.08 24 0 24 C0 16.08 0 8.16 0 0 Z " fill="#FFD7B4" transform="translate(718,686)"/>
<path d="M0 0 C3.96 0 7.92 0 12 0 C12 7.92 12 15.84 12 24 C8.04 24 4.08 24 0 24 C0 16.08 0 8.16 0 0 Z " fill="#392847" transform="translate(790,650)"/>
<path d="M0 0 C7.92 0 15.84 0 24 0 C24 3.96 24 7.92 24 12 C16.08 12 8.16 12 0 12 C0 8.04 0 4.08 0 0 Z " fill="#FFD7B4" transform="translate(754,650)"/>
<path d="M0 0 C3.96 0 7.92 0 12 0 C12 7.92 12 15.84 12 24 C8.04 24 4.08 24 0 24 C0 16.08 0 8.16 0 0 Z " fill="#392847" transform="translate(970,626)"/>
<path d="M0 0 C3.96 0 7.92 0 12 0 C12 7.92 12 15.84 12 24 C8.04 24 4.08 24 0 24 C0 16.08 0 8.16 0 0 Z " fill="#392747" transform="translate(802,626)"/>
<path d="M0 0 C3.96 0 7.92 0 12 0 C12 7.92 12 15.84 12 24 C8.04 24 4.08 24 0 24 C0 16.08 0 8.16 0 0 Z " fill="#F7B197" transform="translate(718,554)"/>
<path d="M0 0 C3.96 0 7.92 0 12 0 C12 7.92 12 15.84 12 24 C8.04 24 4.08 24 0 24 C0 16.08 0 8.16 0 0 Z " fill="#F7B197" transform="translate(694,554)"/>
<path d="M0 0 C3.96 0 7.92 0 12 0 C12 7.92 12 15.84 12 24 C8.04 24 4.08 24 0 24 C0 16.08 0 8.16 0 0 Z " fill="#FCB992" transform="translate(322,554)"/>
<path d="M0 0 C3.96 0 7.92 0 12 0 C12 7.92 12 15.84 12 24 C8.04 24 4.08 24 0 24 C0 16.08 0 8.16 0 0 Z " fill="#7E5DAE" transform="translate(178,518)"/>
<path d="M0 0 C7.92 0 15.84 0 24 0 C24 3.96 24 7.92 24 12 C16.08 12 8.16 12 0 12 C0 8.04 0 4.08 0 0 Z " fill="#FEFEFD" transform="translate(430,470)"/>
<path d="M0 0 C7.92 0 15.84 0 24 0 C24 3.96 24 7.92 24 12 C16.08 12 8.16 12 0 12 C0 8.04 0 4.08 0 0 Z " fill="#D3CBC2" transform="translate(430,458)"/>
<path d="M0 0 C7.92 0 15.84 0 24 0 C24 3.96 24 7.92 24 12 C16.08 12 8.16 12 0 12 C0 8.04 0 4.08 0 0 Z " fill="#E2C1BE" transform="translate(718,386)"/>
<path d="M0 0 C7.92 0 15.84 0 24 0 C24 3.96 24 7.92 24 12 C16.08 12 8.16 12 0 12 C0 8.04 0 4.08 0 0 Z " fill="#E4C3C0" transform="translate(274,386)"/>
<path d="M0 0 C3.96 0 7.92 0 12 0 C12 7.92 12 15.84 12 24 C8.04 24 4.08 24 0 24 C0 16.08 0 8.16 0 0 Z " fill="#392747" transform="translate(922,362)"/>
<path d="M0 0 C3.96 0 7.92 0 12 0 C12 7.92 12 15.84 12 24 C8.04 24 4.08 24 0 24 C0 16.08 0 8.16 0 0 Z " fill="#E0C0BE" transform="translate(706,362)"/>
<path d="M0 0 C7.92 0 15.84 0 24 0 C24 3.96 24 7.92 24 12 C16.08 12 8.16 12 0 12 C0 8.04 0 4.08 0 0 Z " fill="#FEE2C3" transform="translate(622,338)"/>
<path d="M0 0 C3.96 0 7.92 0 12 0 C12 7.92 12 15.84 12 24 C8.04 24 4.08 24 0 24 C0 16.08 0 8.16 0 0 Z " fill="#382746" transform="translate(886,254)"/>
<path d="M0 0 C3.96 0 7.92 0 12 0 C12 7.92 12 15.84 12 24 C8.04 24 4.08 24 0 24 C0 16.08 0 8.16 0 0 Z " fill="#382746" transform="translate(874,230)"/>
<path d="M0 0 C3.96 0 7.92 0 12 0 C12 7.92 12 15.84 12 24 C8.04 24 4.08 24 0 24 C0 16.08 0 8.16 0 0 Z " fill="#382746" transform="translate(850,194)"/>
<path d="M0 0 C7.92 0 15.84 0 24 0 C24 3.96 24 7.92 24 12 C16.08 12 8.16 12 0 12 C0 8.04 0 4.08 0 0 Z " fill="#372645" transform="translate(742,98)"/>
<path d="M0 0 C7.92 0 15.84 0 24 0 C24 3.96 24 7.92 24 12 C16.08 12 8.16 12 0 12 C0 8.04 0 4.08 0 0 Z " fill="#382746" transform="translate(310,98)"/>
<path d="M0 0 C7.59 0 15.18 0 23 0 C23 3.96 23 7.92 23 12 C15.41 12 7.82 12 0 12 C0 8.04 0 4.08 0 0 Z " fill="#392846" transform="translate(394,794)"/>
<path d="M0 0 C7.59 0 15.18 0 23 0 C23 3.96 23 7.92 23 12 C15.41 12 7.82 12 0 12 C0 8.04 0 4.08 0 0 Z " fill="#372645" transform="translate(286,110)"/>
<path d="M0 0 C7.59 0 15.18 0 23 0 C23 3.96 23 7.92 23 12 C15.41 12 7.82 12 0 12 C0 8.04 0 4.08 0 0 Z " fill="#372645" transform="translate(514,2)"/>
<path d="M0 0 C0.33 0 0.66 0 1 0 C1 19.8 1 39.6 1 60 C16.51 60 32.02 60 48 60 C48 56.04 48 52.08 48 48 C51.96 48 55.92 48 60 48 C60 51.96 60 55.92 60 60 C56.37 60 52.74 60 49 60 C49 63.96 49 67.92 49 72 C48.67 72 48.34 72 48 72 C48 68.37 48 64.74 48 61 C32.49 61 16.98 61 1 61 C1 64.63 1 68.26 1 72 C0.67 72 0.34 72 0 72 C0 48.24 0 24.48 0 0 Z " fill="#513968" transform="translate(261,746)"/>
<path d="M0 0 C3.96 0 7.92 0 12 0 C12 31.68 12 63.36 12 96 C11.67 96 11.34 96 11 96 C11 68.28 11 40.56 11 12 C7.37 12 3.74 12 0 12 C0 8.04 0 4.08 0 0 Z " fill="#492F5A" transform="translate(406,254)"/>
<path d="M0 0 C3.96 0 7.92 0 12 0 C12 3.96 12 7.92 12 12 C8.37 12 4.74 12 1 12 C1 15.96 1 19.92 1 24 C0.67 24 0.34 24 0 24 C0 20.37 0 16.74 0 13 C-15.51 13 -31.02 13 -47 13 C-47 20.59 -47 28.18 -47 36 C-47.33 36 -47.66 36 -48 36 C-48 28.08 -48 20.16 -48 12 C-32.16 12 -16.32 12 0 12 C0 8.04 0 4.08 0 0 Z " fill="#422E54" transform="translate(225,818)"/>
<path d="M0 0 C23.76 0 47.52 0 72 0 C72 0.33 72 0.66 72 1 C52.2 1 32.4 1 12 1 C12 4.63 12 8.26 12 12 C8.04 12 4.08 12 0 12 C0 8.04 0 4.08 0 0 Z " fill="#DBCDBE" transform="translate(730,458)"/>
<path d="M0 0 C0.33 0 0.66 0 1 0 C1 15.84 1 31.68 1 48 C-2.96 48 -6.92 48 -11 48 C-11 44.04 -11 40.08 -11 36 C-7.37 36 -3.74 36 0 36 C0 24.12 0 12.24 0 0 Z " fill="#7D5BA8" transform="translate(249,746)"/>
<path d="M0 0 C0.33 0 0.66 0 1 0 C1 3.96 1 7.92 1 12 C4.96 12 8.92 12 13 12 C13 15.96 13 19.92 13 24 C8.71 24 4.42 24 0 24 C0 16.08 0 8.16 0 0 Z " fill="#D0C7BF" transform="translate(645,482)"/>
<path d="M0 0 C3.96 0 7.92 0 12 0 C12 3.96 12 7.92 12 12 C8.37 12 4.74 12 1 12 C1 19.92 1 27.84 1 36 C0.67 36 0.34 36 0 36 C0 24.12 0 12.24 0 0 Z " fill="#402C4F" transform="translate(129,266)"/>
<path d="M0 0 C3.96 0 7.92 0 12 0 C12 7.92 12 15.84 12 24 C11.67 24 11.34 24 11 24 C11 20.04 11 16.08 11 12 C7.37 12 3.74 12 0 12 C0 8.04 0 4.08 0 0 Z " fill="#CDC6BF" transform="translate(622,458)"/>
<path d="M0 0 C3.96 0 7.92 0 12 0 C12 7.92 12 15.84 12 24 C11.67 24 11.34 24 11 24 C11 20.04 11 16.08 11 12 C7.37 12 3.74 12 0 12 C0 8.04 0 4.08 0 0 Z " fill="#CBC4BE" transform="translate(322,458)"/>
<path d="M0 0 C3.96 0 7.92 0 12 0 C12 3.96 12 7.92 12 12 C8.04 12 4.08 12 0 12 C0 8.04 0 4.08 0 0 Z " fill="#3B2948" transform="translate(694,758)"/>
<path d="M0 0 C3.96 0 7.92 0 12 0 C12 3.96 12 7.92 12 12 C8.04 12 4.08 12 0 12 C0 8.04 0 4.08 0 0 Z " fill="#3B2948" transform="translate(706,746)"/>
<path d="M0 0 C3.96 0 7.92 0 12 0 C12 3.96 12 7.92 12 12 C8.04 12 4.08 12 0 12 C0 8.04 0 4.08 0 0 Z " fill="#3A2948" transform="translate(718,734)"/>
<path d="M0 0 C3.96 0 7.92 0 12 0 C12 3.96 12 7.92 12 12 C8.04 12 4.08 12 0 12 C0 8.04 0 4.08 0 0 Z " fill="#3A2848" transform="translate(730,722)"/>
<path d="M0 0 C3.96 0 7.92 0 12 0 C12 3.96 12 7.92 12 12 C8.04 12 4.08 12 0 12 C0 8.04 0 4.08 0 0 Z " fill="#3A2848" transform="translate(742,710)"/>
<path d="M0 0 C3.96 0 7.92 0 12 0 C12 3.96 12 7.92 12 12 C8.04 12 4.08 12 0 12 C0 8.04 0 4.08 0 0 Z " fill="#FFD7B4" transform="translate(706,710)"/>
<path d="M0 0 C3.96 0 7.92 0 12 0 C12 3.96 12 7.92 12 12 C8.04 12 4.08 12 0 12 C0 8.04 0 4.08 0 0 Z " fill="#3A2848" transform="translate(754,698)"/>
<path d="M0 0 C3.96 0 7.92 0 12 0 C12 3.96 12 7.92 12 12 C8.04 12 4.08 12 0 12 C0 8.04 0 4.08 0 0 Z " fill="#3A2848" transform="translate(766,686)"/>
<path d="M0 0 C3.96 0 7.92 0 12 0 C12 3.96 12 7.92 12 12 C8.04 12 4.08 12 0 12 C0 8.04 0 4.08 0 0 Z " fill="#3A2848" transform="translate(778,674)"/>
<path d="M0 0 C3.96 0 7.92 0 12 0 C12 3.96 12 7.92 12 12 C8.04 12 4.08 12 0 12 C0 8.04 0 4.08 0 0 Z " fill="#FFD7B4" transform="translate(730,674)"/>
<path d="M0 0 C3.96 0 7.92 0 12 0 C12 3.96 12 7.92 12 12 C8.04 12 4.08 12 0 12 C0 8.04 0 4.08 0 0 Z " fill="#FFD7B4" transform="translate(742,662)"/>
<path d="M0 0 C3.96 0 7.92 0 12 0 C12 3.96 12 7.92 12 12 C8.04 12 4.08 12 0 12 C0 8.04 0 4.08 0 0 Z " fill="#F7B197" transform="translate(490,578)"/>
<path d="M0 0 C3.96 0 7.92 0 12 0 C12 3.96 12 7.92 12 12 C8.04 12 4.08 12 0 12 C0 8.04 0 4.08 0 0 Z " fill="#8A5EB1" transform="translate(850,566)"/>
<path d="M0 0 C3.96 0 7.92 0 12 0 C12 3.96 12 7.92 12 12 C8.04 12 4.08 12 0 12 C0 8.04 0 4.08 0 0 Z " fill="#FCD4B6" transform="translate(490,566)"/>
<path d="M0 0 C3.96 0 7.92 0 12 0 C12 3.96 12 7.92 12 12 C8.04 12 4.08 12 0 12 C0 8.04 0 4.08 0 0 Z " fill="#D3CBC2" transform="translate(406,494)"/>
<path d="M0 0 C3.96 0 7.92 0 12 0 C12 3.96 12 7.92 12 12 C8.04 12 4.08 12 0 12 C0 8.04 0 4.08 0 0 Z " fill="#FDFCFB" transform="translate(418,482)"/>
<path d="M0 0 C3.96 0 7.92 0 12 0 C12 3.96 12 7.92 12 12 C8.04 12 4.08 12 0 12 C0 8.04 0 4.08 0 0 Z " fill="#282943" transform="translate(706,482)"/>
<path d="M0 0 C3.96 0 7.92 0 12 0 C12 3.96 12 7.92 12 12 C8.04 12 4.08 12 0 12 C0 8.04 0 4.08 0 0 Z " fill="#23243F" transform="translate(646,482)"/>
<path d="M0 0 C3.96 0 7.92 0 12 0 C12 3.96 12 7.92 12 12 C8.04 12 4.08 12 0 12 C0 8.04 0 4.08 0 0 Z " fill="#292A45" transform="translate(406,482)"/>
<path d="M0 0 C3.96 0 7.92 0 12 0 C12 3.96 12 7.92 12 12 C8.04 12 4.08 12 0 12 C0 8.04 0 4.08 0 0 Z " fill="#23243F" transform="translate(346,482)"/>
<path d="M0 0 C3.96 0 7.92 0 12 0 C12 3.96 12 7.92 12 12 C8.04 12 4.08 12 0 12 C0 8.04 0 4.08 0 0 Z " fill="#23243F" transform="translate(634,470)"/>
<path d="M0 0 C3.96 0 7.92 0 12 0 C12 3.96 12 7.92 12 12 C8.04 12 4.08 12 0 12 C0 8.04 0 4.08 0 0 Z " fill="#23243F" transform="translate(334,470)"/>
<path d="M0 0 C3.96 0 7.92 0 12 0 C12 3.96 12 7.92 12 12 C8.04 12 4.08 12 0 12 C0 8.04 0 4.08 0 0 Z " fill="#E0BFBD" transform="translate(790,422)"/>
<path d="M0 0 C3.96 0 7.92 0 12 0 C12 3.96 12 7.92 12 12 C8.04 12 4.08 12 0 12 C0 8.04 0 4.08 0 0 Z " fill="#E0BFBD" transform="translate(778,410)"/>
<path d="M0 0 C3.96 0 7.92 0 12 0 C12 3.96 12 7.92 12 12 C8.04 12 4.08 12 0 12 C0 8.04 0 4.08 0 0 Z " fill="#392748" transform="translate(538,386)"/>
<path d="M0 0 C3.96 0 7.92 0 12 0 C12 3.96 12 7.92 12 12 C8.04 12 4.08 12 0 12 C0 8.04 0 4.08 0 0 Z " fill="#392747" transform="translate(658,326)"/>
<path d="M0 0 C3.96 0 7.92 0 12 0 C12 3.96 12 7.92 12 12 C8.04 12 4.08 12 0 12 C0 8.04 0 4.08 0 0 Z " fill="#382746" transform="translate(862,218)"/>
<path d="M0 0 C3.96 0 7.92 0 12 0 C12 3.96 12 7.92 12 12 C8.04 12 4.08 12 0 12 C0 8.04 0 4.08 0 0 Z " fill="#382746" transform="translate(838,182)"/>
<path d="M0 0 C3.96 0 7.92 0 12 0 C12 3.96 12 7.92 12 12 C8.04 12 4.08 12 0 12 C0 8.04 0 4.08 0 0 Z " fill="#382746" transform="translate(826,170)"/>
<path d="M0 0 C3.96 0 7.92 0 12 0 C12 3.96 12 7.92 12 12 C8.04 12 4.08 12 0 12 C0 8.04 0 4.08 0 0 Z " fill="#382746" transform="translate(814,158)"/>
<path d="M0 0 C3.96 0 7.92 0 12 0 C12 3.96 12 7.92 12 12 C8.04 12 4.08 12 0 12 C0 8.04 0 4.08 0 0 Z " fill="#382746" transform="translate(802,146)"/>
<path d="M0 0 C3.96 0 7.92 0 12 0 C12 3.96 12 7.92 12 12 C8.04 12 4.08 12 0 12 C0 8.04 0 4.08 0 0 Z " fill="#382746" transform="translate(790,134)"/>
<path d="M0 0 C3.96 0 7.92 0 12 0 C12 3.96 12 7.92 12 12 C8.04 12 4.08 12 0 12 C0 8.04 0 4.08 0 0 Z " fill="#382746" transform="translate(778,122)"/>
<path d="M0 0 C3.96 0 7.92 0 12 0 C12 3.96 12 7.92 12 12 C8.04 12 4.08 12 0 12 C0 8.04 0 4.08 0 0 Z " fill="#392746" transform="translate(766,110)"/>
<path d="M0 0 C3.63 0 7.26 0 11 0 C11 3.96 11 7.92 11 12 C7.37 12 3.74 12 0 12 C0 8.04 0 4.08 0 0 Z " fill="#372646" transform="translate(310,794)"/>
<path d="M0 0 C3.63 0 7.26 0 11 0 C11 3.96 11 7.92 11 12 C7.37 12 3.74 12 0 12 C0 8.04 0 4.08 0 0 Z " fill="#372646" transform="translate(322,782)"/>
<path d="M0 0 C3.63 0 7.26 0 11 0 C11 3.96 11 7.92 11 12 C7.37 12 3.74 12 0 12 C0 8.04 0 4.08 0 0 Z " fill="#372646" transform="translate(70,590)"/>
<path d="M0 0 C3.63 0 7.26 0 11 0 C11 3.96 11 7.92 11 12 C7.37 12 3.74 12 0 12 C0 8.04 0 4.08 0 0 Z " fill="#815FB2" transform="translate(142,590)"/>
<path d="M0 0 C3.63 0 7.26 0 11 0 C11 3.96 11 7.92 11 12 C7.37 12 3.74 12 0 12 C0 8.04 0 4.08 0 0 Z " fill="#23243F" transform="translate(718,470)"/>
<path d="M0 0 C3.63 0 7.26 0 11 0 C11 3.96 11 7.92 11 12 C7.37 12 3.74 12 0 12 C0 8.04 0 4.08 0 0 Z " fill="#FEFEFE" transform="translate(622,470)"/>
<path d="M0 0 C3.63 0 7.26 0 11 0 C11 3.96 11 7.92 11 12 C7.37 12 3.74 12 0 12 C0 8.04 0 4.08 0 0 Z " fill="#23243F" transform="translate(418,470)"/>
<path d="M0 0 C3.63 0 7.26 0 11 0 C11 3.96 11 7.92 11 12 C7.37 12 3.74 12 0 12 C0 8.04 0 4.08 0 0 Z " fill="#372645" transform="translate(106,302)"/>
<path d="M0 0 C3.63 0 7.26 0 11 0 C11 3.96 11 7.92 11 12 C7.37 12 3.74 12 0 12 C0 8.04 0 4.08 0 0 Z " fill="#372645" transform="translate(142,254)"/>
<path d="M0 0 C3.63 0 7.26 0 11 0 C11 3.96 11 7.92 11 12 C7.37 12 3.74 12 0 12 C0 8.04 0 4.08 0 0 Z " fill="#372645" transform="translate(154,242)"/>
<path d="M0 0 C3.63 0 7.26 0 11 0 C11 3.96 11 7.92 11 12 C7.37 12 3.74 12 0 12 C0 8.04 0 4.08 0 0 Z " fill="#372645" transform="translate(166,230)"/>
<path d="M0 0 C3.63 0 7.26 0 11 0 C11 3.96 11 7.92 11 12 C7.37 12 3.74 12 0 12 C0 8.04 0 4.08 0 0 Z " fill="#372645" transform="translate(178,218)"/>
<path d="M0 0 C3.63 0 7.26 0 11 0 C11 3.96 11 7.92 11 12 C7.37 12 3.74 12 0 12 C0 8.04 0 4.08 0 0 Z " fill="#372645" transform="translate(190,206)"/>
<path d="M0 0 C3.63 0 7.26 0 11 0 C11 3.96 11 7.92 11 12 C7.37 12 3.74 12 0 12 C0 8.04 0 4.08 0 0 Z " fill="#372645" transform="translate(202,194)"/>
<path d="M0 0 C3.63 0 7.26 0 11 0 C11 3.96 11 7.92 11 12 C7.37 12 3.74 12 0 12 C0 8.04 0 4.08 0 0 Z " fill="#372645" transform="translate(214,182)"/>
<path d="M0 0 C3.63 0 7.26 0 11 0 C11 3.96 11 7.92 11 12 C7.37 12 3.74 12 0 12 C0 8.04 0 4.08 0 0 Z " fill="#372645" transform="translate(226,170)"/>
<path d="M0 0 C3.63 0 7.26 0 11 0 C11 3.96 11 7.92 11 12 C7.37 12 3.74 12 0 12 C0 8.04 0 4.08 0 0 Z " fill="#372645" transform="translate(238,158)"/>
<path d="M0 0 C3.63 0 7.26 0 11 0 C11 3.96 11 7.92 11 12 C7.37 12 3.74 12 0 12 C0 8.04 0 4.08 0 0 Z " fill="#372645" transform="translate(250,146)"/>
<path d="M0 0 C3.63 0 7.26 0 11 0 C11 3.96 11 7.92 11 12 C7.37 12 3.74 12 0 12 C0 8.04 0 4.08 0 0 Z " fill="#372645" transform="translate(262,134)"/>
<path d="M0 0 C3.63 0 7.26 0 11 0 C11 3.96 11 7.92 11 12 C7.37 12 3.74 12 0 12 C0 8.04 0 4.08 0 0 Z " fill="#372645" transform="translate(274,122)"/>
<path d="M0 0 C3.63 0 7.26 0 11 0 C11 3.63 11 7.26 11 11 C7.37 11 3.74 11 0 11 C0 7.37 0 3.74 0 0 Z " fill="#FFFFFF" transform="translate(634,483)"/>
</svg>
