<svg width="143" height="143" viewBox="0 0 143 143" fill="none" xmlns="http://www.w3.org/2000/svg">
<path d="M84.9292 113.369C86.238 114.677 86.238 116.799 84.9292 118.109L72.452 130.586C55.9001 147.138 28.9676 147.139 12.4143 130.586C-4.13783 114.033 -4.13783 87.1005 12.4143 70.5483L24.8919 58.0707C26.2006 56.7619 28.3227 56.7619 29.6318 58.0707L40.6913 69.1303C42.0001 70.4391 42.0001 72.5612 40.6913 73.8702L28.2138 86.3475C20.3734 94.1882 20.3734 106.946 28.2138 114.786C36.0542 122.627 48.8118 122.627 56.6528 114.786L69.13 102.309C70.4388 101 72.5609 101 73.87 102.309L84.9292 113.369ZM69.13 40.6912C70.4388 42 72.5609 42 73.87 40.6912L86.3472 28.2139C94.1876 20.3727 106.945 20.3732 114.786 28.2139C122.627 36.0546 122.627 48.812 114.786 56.6527L102.309 69.13C101 70.4388 101 72.5609 102.309 73.8699L113.368 84.9295C114.677 86.2383 116.799 86.2383 118.108 84.9295L130.586 72.452C147.138 55.8994 147.138 28.9669 130.586 12.4144C114.033 -4.13785 87.1007 -4.13785 70.548 12.4144L58.0708 24.8917C56.762 26.2005 56.762 28.3225 58.0708 29.6316L69.13 40.6912ZM134.716 141.037L141.036 134.717C143.654 132.099 143.654 127.855 141.036 125.238L17.7628 1.96338C15.145 -0.654462 10.9008 -0.654462 8.28328 1.96338L1.96338 8.28331C-0.654459 10.9012 -0.654459 15.1453 1.96338 17.7629L125.237 141.037C127.855 143.654 132.099 143.654 134.716 141.037Z" fill="black"/>
</svg>
