<svg width="143" height="171" viewBox="0 0 143 171" fill="none" xmlns="http://www.w3.org/2000/svg">
<path d="M60.775 82.3327L53.3696 75.0311C51.3268 73.1846 48.9435 72.2615 46.2196 72.2615C43.4958 72.2615 41.1125 73.2686 39.0696 75.2828C37.0268 77.2971 36.0054 79.6471 36.0054 82.3327C36.0054 85.0184 37.0268 87.3684 39.0696 89.3826L53.3696 103.734C55.4125 105.748 57.8401 106.756 60.6524 106.756C63.4648 106.756 65.8889 105.748 67.925 103.734L103.93 67.9812C105.973 65.9669 106.995 63.6169 106.995 60.9313C106.995 58.2456 105.973 55.8956 103.93 53.8814C101.887 51.8671 99.5042 50.86 96.7804 50.86C94.0565 50.86 91.6732 51.8671 89.6303 53.8814L60.775 82.3327ZM71.5 151.069L28.6 169.198C21.7904 172.051 15.3215 171.507 9.19286 167.566C3.06418 163.625 0 158.042 0 150.817V20.1426C0 14.6034 2.00194 9.86314 6.006 5.92191C10.0101 1.98069 14.8175 0.00671419 20.4286 0H122.571C128.189 0 133 1.97397 137.004 5.92191C141.008 9.86986 143.007 14.6101 143 20.1426V150.817C143 158.035 139.936 163.618 133.807 167.566C127.678 171.514 121.21 172.058 114.4 169.198L71.5 151.069Z" fill="black"/>
</svg>
